<svg width="185" height="32" viewBox="0 0 185 32" fill="none" xmlns="http://www.w3.org/2000/svg">
<g clip-path="url(#clip0)">
<path d="M16.1846 0.246094H83.3846V15.5692C83.3846 19.8616 81.6795 23.9782 78.6442 27.0134C75.609 30.0486 71.4924 31.7538 67.2 31.7538H0V16.4307C0 12.1383 1.70516 8.02166 4.74036 4.98646C7.77557 1.95125 11.8922 0.246094 16.1846 0.246094Z" fill="#ED2024"/>
<path d="M24.9231 8.43058C24.087 7.57482 23.0807 6.90397 21.9692 6.46135C20.7768 5.98362 19.4996 5.75332 18.2154 5.78442C16.9108 5.74838 15.6126 5.97871 14.4 6.46135C13.2813 6.89011 12.2722 7.56283 11.4462 8.43058C10.6167 9.27576 9.96764 10.2807 9.53846 11.3844C9.08469 12.5837 8.85523 13.8561 8.86154 15.1383C8.85464 16.4405 9.08399 17.7332 9.53846 18.9537C9.96637 20.0762 10.6151 21.1016 11.4462 21.969C12.2913 22.7985 13.2963 23.4476 14.4 23.8767C15.6082 24.3804 16.9065 24.6317 18.2154 24.6152C19.5039 24.6268 20.7812 24.3755 21.9692 23.8767C23.0656 23.4333 24.0679 22.786 24.9231 21.969C25.7542 21.1016 26.4029 20.0762 26.8308 18.9537C27.7356 16.5117 27.7356 13.8264 26.8308 11.3844C26.4164 10.2732 25.7655 9.26535 24.9231 8.43058ZM24.8615 15.1383C24.8782 16.0792 24.7325 17.0161 24.4308 17.9075C24.1069 18.7306 23.6262 19.483 23.0154 20.1229C22.4011 20.7516 21.6693 21.2534 20.8615 21.5998C20.0163 21.922 19.1199 22.0888 18.2154 22.0921C17.2903 22.0949 16.3726 21.928 15.5077 21.5998C14.6954 21.267 13.9629 20.7658 13.3583 20.1294C12.7537 19.493 12.2908 18.7357 12 17.9075C11.6473 17.0281 11.4797 16.0854 11.5077 15.1383C11.4864 14.2117 11.6539 13.2904 12 12.4306C12.3027 11.611 12.7626 10.8584 13.3538 10.2152C13.9681 9.58653 14.6999 9.08471 15.5077 8.73827C16.3726 8.41009 17.2903 8.24323 18.2154 8.24596C19.1199 8.24932 20.0163 8.41611 20.8615 8.73827C21.6693 9.08471 22.4011 9.58653 23.0154 10.2152C23.6262 10.855 24.1069 11.6074 24.4308 12.4306C24.7279 13.3019 24.8736 14.2177 24.8615 15.1383Z" fill="white"/>
<path d="M40.6154 12.1845C39.5799 11.6115 38.4143 11.3147 37.2308 11.3229C36.0671 11.317 34.9219 11.6139 33.9077 12.1845C32.9594 12.7541 32.1749 13.5597 31.6308 14.5229C31.0578 15.5584 30.7611 16.7241 30.7693 17.9075V28.4306C30.7632 28.6017 30.7929 28.7721 30.8565 28.9311C30.9201 29.09 31.0161 29.234 31.1385 29.3537C31.2467 29.4941 31.387 29.6065 31.5476 29.6815C31.7082 29.7564 31.8845 29.7917 32.0616 29.7845C32.2482 29.7966 32.435 29.7639 32.6063 29.6889C32.7776 29.6139 32.9285 29.499 33.0462 29.3537C33.1685 29.234 33.2646 29.09 33.3281 28.9311C33.3917 28.7721 33.4214 28.6017 33.4154 28.4306V22.5845C33.8914 23.1328 34.4788 23.5734 35.1385 23.8768C35.9491 24.2483 36.8314 24.4374 37.7231 24.4306C38.814 24.4756 39.8911 24.174 40.8 23.5691C41.7312 22.9978 42.4953 22.1912 43.0154 21.2306C43.5383 20.2007 43.8123 19.0625 43.8154 17.9075C43.8105 16.7606 43.5143 15.6337 42.9546 14.6327C42.3949 13.6316 41.59 12.7892 40.6154 12.1845ZM41.2308 17.9075C41.2358 18.6418 41.0446 19.3642 40.677 19.9998C40.3576 20.6344 39.8674 21.1673 39.2616 21.5383C38.6381 21.8741 37.9388 22.0436 37.2308 22.0306C36.5433 22.0358 35.8657 21.8664 35.2616 21.5383C34.6419 21.1844 34.1473 20.6468 33.8462 19.9998C33.4698 19.3678 33.2779 18.643 33.2923 17.9075C33.2793 17.1528 33.4707 16.4085 33.8462 15.7537C34.1628 15.1172 34.6536 14.5837 35.2616 14.2152C35.8657 13.8871 36.5433 13.7177 37.2308 13.7229C37.9388 13.7099 38.6381 13.8795 39.2616 14.2152C39.8542 14.6021 40.3407 15.1309 40.677 15.7537C41.0525 16.4085 41.2438 17.1528 41.2308 17.9075Z" fill="white"/>
<path d="M55.9385 12.1229C54.9669 11.5641 53.8587 11.287 52.7385 11.3229C51.58 11.2953 50.4344 11.5711 49.4154 12.1229C48.4671 12.6925 47.6826 13.4982 47.1385 14.4614C46.5792 15.5219 46.3036 16.7091 46.3385 17.9075C46.3303 19.091 46.627 20.2566 47.2 21.2921C47.7547 22.2891 48.589 23.102 49.6 23.6306C50.6798 24.1977 51.8888 24.4734 53.1077 24.4306C53.8806 24.419 54.6477 24.2947 55.3846 24.0614C56.0842 23.8007 56.7463 23.449 57.3538 23.0152C57.4894 22.9166 57.5993 22.7869 57.6743 22.637C57.7492 22.487 57.7871 22.3213 57.7846 22.1537C57.7708 21.9828 57.7195 21.817 57.6344 21.6681C57.5493 21.5192 57.4325 21.3909 57.2923 21.2921C57.0742 21.092 56.7883 20.9821 56.4923 20.9845C56.1984 20.993 55.9162 21.1016 55.6923 21.2921C55.3301 21.5459 54.9373 21.7527 54.5231 21.9075C54.0697 22.073 53.5904 22.1564 53.1077 22.1537C52.3128 22.1768 51.5263 21.9854 50.8308 21.5998C50.1751 21.2532 49.639 20.7171 49.2923 20.0614C49.0553 19.6842 48.8885 19.2672 48.8 18.8306H57.4154C57.5732 18.8529 57.734 18.8365 57.8841 18.7829C58.0341 18.7293 58.1689 18.6401 58.2769 18.5229C58.3977 18.415 58.4934 18.282 58.5572 18.1331C58.621 17.9843 58.6513 17.8232 58.6462 17.6614C58.6614 16.5378 58.4304 15.4245 57.9692 14.3998C57.5161 13.4675 56.8131 12.6793 55.9385 12.1229ZM49.1692 15.6921C49.4886 15.0576 49.9788 14.5247 50.5846 14.1537C51.2331 13.7627 51.9818 13.5702 52.7385 13.5998C53.3824 13.5783 54.0183 13.7481 54.5659 14.0876C55.1135 14.4271 55.5483 14.9212 55.8154 15.5075C56.0028 15.874 56.1276 16.2692 56.1846 16.6768H48.8615C48.927 16.3381 49.0302 16.0078 49.1692 15.6921Z" fill="white"/>
<path d="M72.7385 14.031C72.2754 13.1695 71.5692 12.4632 70.7077 12.0002C69.8056 11.4975 68.7864 11.2427 67.7538 11.2617C66.7622 11.2585 65.7868 11.513 64.9231 12.0002L64 12.6156C63.9954 12.2909 63.8627 11.9813 63.6308 11.754C63.5017 11.6269 63.3473 11.5284 63.1777 11.4648C63.0081 11.4011 62.827 11.3739 62.6462 11.3848C62.4751 11.3788 62.3046 11.4085 62.1457 11.4721C61.9867 11.5357 61.8428 11.6317 61.7231 11.754C61.4781 12.0227 61.3459 12.3752 61.3538 12.7387V23.0156C61.3429 23.1964 61.3702 23.3775 61.4338 23.5471C61.4974 23.7168 61.596 23.8711 61.7231 24.0002C61.8428 24.1226 61.9867 24.2186 62.1457 24.2822C62.3046 24.3457 62.4751 24.3755 62.6462 24.3694C62.8263 24.3782 63.0062 24.3492 63.1745 24.2843C63.3427 24.2194 63.4955 24.12 63.623 23.9925C63.7505 23.8649 63.85 23.7122 63.9149 23.5439C63.9798 23.3757 64.0088 23.1957 64 23.0156V16.554C63.9821 16.0284 64.1331 15.5108 64.4308 15.0771C64.7476 14.671 65.1458 14.3356 65.6 14.0925C66.141 13.8467 66.7288 13.7207 67.3231 13.7233C67.9384 13.7074 68.5492 13.8338 69.1077 14.0925C69.6462 14.3434 70.0966 14.7509 70.4 15.2617C70.7195 15.9111 70.8678 16.6313 70.8308 17.354V23.0156C70.8199 23.1964 70.8471 23.3775 70.9107 23.5471C70.9743 23.7168 71.0729 23.8711 71.2 24.0002C71.4686 24.2452 71.8212 24.3774 72.1846 24.3694C72.3557 24.3755 72.5262 24.3457 72.6851 24.2822C72.844 24.2186 72.988 24.1226 73.1077 24.0002C73.2348 23.8711 73.3334 23.7168 73.397 23.5471C73.4606 23.3775 73.4878 23.1964 73.4769 23.0156V17.354C73.5099 16.2023 73.2561 15.0604 72.7385 14.031Z" fill="white"/>
<path d="M97.4154 13.6616C96.4808 13.6389 95.5602 13.4297 94.7077 13.0462C94.2099 12.8159 93.7844 12.4542 93.4769 12C93.2531 11.63 93.1459 11.2011 93.1692 10.7692C93.1447 10.3848 93.23 10.0013 93.4153 9.66348C93.6005 9.32569 93.878 9.04756 94.2154 8.86155C95.0554 8.44195 95.9842 8.23086 96.9231 8.24617C97.511 8.24758 98.0941 8.35171 98.6462 8.55386C99.0858 8.67951 99.4875 8.91207 99.8154 9.23078C100.188 9.54105 100.5 9.91638 100.738 10.3385C100.913 10.6543 101.198 10.8951 101.538 11.0154C101.724 11.0801 101.922 11.097 102.116 11.0648C102.31 11.0325 102.492 10.952 102.646 10.8308C102.797 10.7594 102.924 10.6458 103.011 10.5038C103.098 10.3618 103.143 10.1975 103.138 10.0308C103.197 9.66326 103.109 9.28742 102.892 8.98463C102.504 8.36479 102.027 7.80503 101.477 7.32309C100.925 6.82544 100.275 6.4482 99.5692 6.2154C98.7873 5.90327 97.9492 5.75659 97.1077 5.78463C95.9757 5.76796 94.85 5.95558 93.7846 6.33848C92.8367 6.64042 92.0009 7.21909 91.3846 8.00001C90.7636 8.76349 90.4362 9.7239 90.4615 10.7077C90.4651 11.4022 90.6213 12.0874 90.9191 12.7148C91.2169 13.3422 91.6489 13.8965 92.1846 14.3385C93.4945 15.3581 95.0817 15.9586 96.7385 16.0616C98.2154 16.1846 99.2 16.5539 99.8154 17.1692C100.101 17.4391 100.329 17.7632 100.488 18.1224C100.646 18.4817 100.731 18.869 100.738 19.2616C100.751 19.8253 100.553 20.3735 100.185 20.8C99.7927 21.2303 99.309 21.5668 98.7692 21.7846C98.1111 21.9863 97.4268 22.0899 96.7385 22.0923C96.109 22.1103 95.482 22.0058 94.8923 21.7846C94.3659 21.6137 93.868 21.3647 93.4154 21.0462C93.0635 20.7808 92.7702 20.4456 92.5539 20.0616C92.5028 19.896 92.4156 19.7439 92.2985 19.6162C92.1814 19.4884 92.0374 19.3883 91.8769 19.3231C91.7452 19.228 91.5919 19.167 91.4309 19.1455C91.2698 19.1241 91.1059 19.1428 90.9539 19.2C90.7681 19.2164 90.5885 19.2747 90.4286 19.3707C90.2686 19.4666 90.1326 19.5976 90.0308 19.7539C89.939 19.9129 89.8906 20.0933 89.8906 20.2769C89.8906 20.4606 89.939 20.641 90.0308 20.8C90.353 21.5683 90.8604 22.2448 91.5077 22.7692C92.2033 23.3847 93.0212 23.8461 93.9077 24.1231C94.8168 24.4456 95.7739 24.6121 96.7385 24.6154C97.5729 24.6176 98.4029 24.4931 99.2 24.2462C99.9739 24.0576 100.705 23.7234 101.354 23.2616C101.956 22.8158 102.459 22.25 102.831 21.6C103.216 20.8599 103.406 20.034 103.385 19.2C103.414 18.4912 103.293 17.7842 103.027 17.1262C102.762 16.4682 102.359 15.8745 101.846 15.3846C100.574 14.3813 99.0311 13.7812 97.4154 13.6616Z" fill="white"/>
<path d="M112.062 21.7231H111.323C111.098 21.7303 110.875 21.6839 110.671 21.5876C110.468 21.4912 110.291 21.3478 110.154 21.1692C109.838 20.7442 109.686 20.2203 109.723 19.6923V14.1538H111.508C111.824 14.1658 112.132 14.0556 112.369 13.8462C112.482 13.7452 112.573 13.622 112.637 13.4844C112.7 13.3468 112.735 13.1977 112.738 13.0462C112.748 12.8837 112.72 12.7213 112.656 12.5717C112.592 12.4222 112.494 12.2896 112.369 12.1846C112.132 11.9752 111.824 11.865 111.508 11.8769H109.723V8.67692C109.729 8.50584 109.699 8.33539 109.636 8.17644C109.572 8.0175 109.476 7.87357 109.354 7.75385C109.085 7.50889 108.733 7.37668 108.369 7.38461C108.026 7.38461 107.698 7.52077 107.455 7.76312C107.213 8.00548 107.077 8.33418 107.077 8.67692V11.8769H106.154C105.838 11.865 105.529 11.9752 105.292 12.1846C105.168 12.2896 105.07 12.4222 105.006 12.5717C104.942 12.7213 104.913 12.8837 104.923 13.0462C104.918 13.199 104.949 13.3509 105.013 13.4898C105.077 13.6286 105.173 13.7506 105.292 13.8462C105.529 14.0556 105.838 14.1658 106.154 14.1538H107.077V19.6923C107.063 20.5255 107.253 21.3495 107.631 22.0923C107.986 22.7541 108.492 23.3232 109.108 23.7538C109.782 24.1426 110.545 24.3543 111.323 24.3692H111.692C112.093 24.3788 112.485 24.2482 112.8 24C112.945 23.8823 113.06 23.7314 113.135 23.5601C113.21 23.3888 113.243 23.202 113.231 23.0154C113.231 22.6825 113.123 22.3586 112.923 22.0923C112.815 21.9715 112.682 21.8759 112.533 21.8121C112.384 21.7483 112.223 21.7179 112.062 21.7231Z" fill="white"/>
<path d="M126.4 11.3848C126.037 11.3769 125.684 11.5091 125.415 11.7541C125.288 11.8831 125.19 12.0375 125.126 12.2071C125.062 12.3768 125.035 12.5579 125.046 12.7387V19.2618C125.065 19.7495 124.912 20.2284 124.615 20.6156C124.318 21.056 123.917 21.4155 123.446 21.6618C122.909 21.9198 122.319 22.0464 121.723 22.031C121.108 22.0405 120.499 21.9145 119.938 21.6618C119.401 21.402 118.967 20.9683 118.708 20.431C118.364 19.8107 118.194 19.1091 118.215 18.4002V12.7387C118.224 12.5586 118.195 12.3786 118.13 12.2104C118.065 12.0421 117.966 11.8893 117.838 11.7618C117.711 11.6343 117.558 11.5349 117.39 11.47C117.222 11.405 117.042 11.376 116.862 11.3848C116.69 11.3788 116.52 11.4085 116.361 11.4721C116.202 11.5357 116.058 11.6317 115.938 11.7541C115.811 11.8831 115.713 12.0375 115.649 12.2071C115.586 12.3768 115.558 12.5579 115.569 12.7387V18.4002C115.536 19.552 115.79 20.6939 116.308 21.7233C116.771 22.5848 117.477 23.291 118.338 23.7541C119.241 24.2568 120.26 24.5116 121.292 24.4925C122.285 24.5045 123.263 24.2495 124.123 23.7541L125.046 23.1387C125.077 23.4573 125.206 23.7584 125.415 24.0002C125.684 24.2452 126.037 24.3774 126.4 24.3695C126.571 24.3755 126.742 24.3458 126.9 24.2822C127.059 24.2186 127.203 24.1226 127.323 24.0002C127.558 23.7256 127.689 23.377 127.692 23.0156V12.7387C127.703 12.5579 127.676 12.3768 127.612 12.2071C127.549 12.0375 127.45 11.8831 127.323 11.7541C127.203 11.6317 127.059 11.5357 126.9 11.4721C126.742 11.4085 126.571 11.3788 126.4 11.3848Z" fill="white"/>
<path d="M142.646 5.96903C142.283 5.96109 141.93 6.0933 141.662 6.33826C141.417 6.60687 141.284 6.95943 141.292 7.32287V13.169C140.816 12.6207 140.229 12.1801 139.569 11.8767C138.759 11.5052 137.876 11.3161 136.985 11.3229C135.898 11.3087 134.829 11.6078 133.908 12.1844C132.977 12.7557 132.212 13.5622 131.692 14.5229C131.169 15.5528 130.895 16.6909 130.892 17.846C130.884 19.0294 131.181 20.195 131.754 21.2306C132.343 22.2005 133.169 23.0051 134.154 23.569C135.156 24.1688 136.31 24.4679 137.477 24.4306C138.626 24.4776 139.763 24.1774 140.738 23.569C141.719 23.0201 142.528 22.2108 143.077 21.2306C143.675 20.2053 143.974 19.0326 143.938 17.846V7.32287C143.946 6.95943 143.814 6.60687 143.569 6.33826C143.45 6.2159 143.306 6.11987 143.147 6.05629C142.988 5.99271 142.817 5.96299 142.646 5.96903ZM141.415 17.846C141.428 18.6007 141.237 19.3449 140.862 19.9998C140.56 20.6468 140.066 21.1844 139.446 21.5383C138.842 21.8664 138.164 22.0358 137.477 22.0306C136.771 22.0284 136.075 21.8597 135.446 21.5383C134.838 21.1698 134.347 20.6363 134.031 19.9998C133.655 19.3449 133.464 18.6007 133.477 17.846C133.463 17.1105 133.654 16.3857 134.031 15.7536C134.332 15.1066 134.826 14.5691 135.446 14.2152C136.075 13.8937 136.771 13.7251 137.477 13.7229C138.164 13.7177 138.842 13.8871 139.446 14.2152C140.066 14.5691 140.56 15.1066 140.862 15.7536C141.238 16.3857 141.43 17.1105 141.415 17.846Z" fill="white"/>
<path d="M156.738 12.1231C155.769 11.558 154.659 11.2805 153.538 11.3231C152.399 11.2886 151.271 11.5652 150.277 12.1231C149.329 12.6927 148.544 13.4984 148 14.4616C147.434 15.5111 147.138 16.6847 147.138 17.8769C147.138 19.0692 147.434 20.2428 148 21.2923C148.589 22.2623 149.415 23.0669 150.4 23.6308C151.485 24.1826 152.69 24.4574 153.908 24.4308C154.681 24.4238 155.449 24.2993 156.185 24.0616C156.909 23.8134 157.593 23.461 158.215 23.0154C158.465 22.7945 158.619 22.4858 158.646 22.1539C158.591 21.8167 158.417 21.5107 158.154 21.2923C157.93 21.1017 157.648 20.9932 157.354 20.9846C157.041 20.9934 156.74 21.1012 156.492 21.2923C156.138 21.559 155.743 21.7668 155.323 21.9077C154.87 22.0732 154.39 22.1566 153.908 22.1539C153.114 22.1682 152.329 21.9774 151.631 21.6C150.989 21.2342 150.458 20.7029 150.092 20.0616C149.876 19.6807 149.73 19.2637 149.662 18.8308H158.277C158.434 18.8401 158.591 18.8176 158.739 18.7647C158.887 18.7118 159.023 18.6297 159.138 18.5231C159.252 18.4122 159.338 18.277 159.391 18.1277C159.445 17.9785 159.463 17.8191 159.446 17.6616C159.491 16.5354 159.258 15.4155 158.769 14.4C158.334 13.4561 157.627 12.6634 156.738 12.1231ZM149.662 16.6769L150.031 15.6923C150.309 15.0497 150.783 14.5113 151.385 14.1539C152.039 13.7784 152.784 13.587 153.538 13.6C154.208 13.5852 154.868 13.7555 155.446 14.0923C155.961 14.445 156.366 14.9355 156.615 15.5077C156.803 15.8742 156.928 16.2694 156.985 16.6769H149.662Z" fill="white"/>
<path d="M171.508 12.0001C170.625 11.5051 169.627 11.2505 168.615 11.2616C167.623 11.2496 166.645 11.5047 165.785 12.0001C165.446 12.154 165.134 12.3618 164.862 12.6155C164.803 12.3047 164.677 12.0105 164.492 11.7539C164.303 11.5529 164.057 11.4145 163.787 11.3574C163.517 11.3002 163.236 11.327 162.981 11.4341C162.727 11.5413 162.511 11.7236 162.363 11.9568C162.215 12.1899 162.142 12.4627 162.154 12.7386V23.0155C162.143 23.1963 162.17 23.3774 162.234 23.547C162.297 23.7167 162.396 23.871 162.523 24.0001C162.794 24.2423 163.144 24.3762 163.508 24.3762C163.871 24.3762 164.222 24.2423 164.492 24.0001C164.619 23.871 164.718 23.7167 164.782 23.547C164.845 23.3774 164.872 23.1963 164.862 23.0155V16.5539C164.844 16.0283 164.995 15.5107 165.292 15.077C165.595 14.6575 165.997 14.3192 166.462 14.0924C166.979 13.8416 167.548 13.7152 168.123 13.7232C168.758 13.7145 169.387 13.8403 169.969 14.0924C170.477 14.3642 170.902 14.7682 171.2 15.2616C171.543 15.9043 171.713 16.6255 171.692 17.3539V23.0155C171.681 23.1963 171.709 23.3774 171.772 23.547C171.836 23.7167 171.934 23.871 172.062 24.0001C172.181 24.1225 172.325 24.2185 172.484 24.2821C172.643 24.3456 172.814 24.3754 172.985 24.3693C173.348 24.3773 173.701 24.2451 173.969 24.0001C174.096 23.871 174.195 23.7167 174.259 23.547C174.322 23.3774 174.349 23.1963 174.338 23.0155V17.3539C174.371 16.2022 174.118 15.0603 173.6 14.0309C173.115 13.165 172.388 12.4593 171.508 12.0001Z" fill="white"/>
<path d="M184.308 22.0923C184.2 21.9715 184.067 21.8759 183.918 21.8121C183.769 21.7483 183.608 21.7179 183.446 21.7231H182.708C182.483 21.7303 182.259 21.6839 182.056 21.5876C181.853 21.4912 181.675 21.3478 181.538 21.1692C181.223 20.7442 181.07 20.2203 181.108 19.6923V14.1538H182.892C183.208 14.1658 183.517 14.0556 183.754 13.8462C183.867 13.7452 183.958 13.622 184.021 13.4844C184.085 13.3468 184.12 13.1977 184.123 13.0462C184.133 12.8837 184.104 12.7213 184.04 12.5717C183.976 12.4222 183.878 12.2896 183.754 12.1846C183.517 11.9752 183.208 11.865 182.892 11.8769H181.108V8.67692C181.114 8.50584 181.084 8.33539 181.02 8.17644C180.957 8.0175 180.861 7.87357 180.738 7.75385C180.47 7.50889 180.117 7.37668 179.754 7.38461C179.584 7.38461 179.416 7.41804 179.259 7.48299C179.103 7.54793 178.96 7.64312 178.84 7.76312C178.72 7.88313 178.625 8.02559 178.56 8.18238C178.495 8.33917 178.462 8.50721 178.462 8.67692V11.8769H177.538C177.222 11.865 176.914 11.9752 176.677 12.1846C176.553 12.2896 176.455 12.4222 176.39 12.5717C176.326 12.7213 176.298 12.8837 176.308 13.0462C176.311 13.1977 176.346 13.3468 176.409 13.4844C176.473 13.622 176.564 13.7452 176.677 13.8462C176.914 14.0556 177.222 14.1658 177.538 14.1538H178.462V19.6923C178.448 20.5255 178.638 21.3495 179.015 22.0923C179.371 22.7541 179.877 23.3232 180.492 23.7538C181.167 24.1426 181.929 24.3543 182.708 24.3692H183.077C183.478 24.3788 183.87 24.2482 184.185 24C184.33 23.8823 184.445 23.7314 184.52 23.5601C184.595 23.3888 184.628 23.202 184.615 23.0154C184.615 22.6825 184.507 22.3586 184.308 22.0923Z" fill="white"/>
</g>
<defs>
<clipPath id="clip0">
<rect width="184.615" height="32" fill="white"/>
</clipPath>
</defs>
</svg>
