<svg width="289" height="50" viewBox="0 0 289 50" fill="none" xmlns="http://www.w3.org/2000/svg">
<g clip-path="url(#clip0)">
<path d="M25.3137 0.384613H130.419V24.3269C130.419 31.0338 127.752 37.4661 123.005 42.2086C118.257 46.9511 111.819 49.6154 105.105 49.6154H0V25.6731C0 18.9662 2.66698 12.5339 7.41423 7.79143C12.1615 3.04892 18.6001 0.384613 25.3137 0.384613Z" fill="#ED2024"/>
<path d="M38.9814 13.1731C37.6737 11.836 36.0998 10.7878 34.3614 10.0962C32.4963 9.34971 30.4987 8.98986 28.4901 9.03847C26.4496 8.98214 24.4191 9.34204 22.5226 10.0962C20.7729 10.7661 19.1946 11.8172 17.9026 13.1731C16.6052 14.4937 15.5901 16.0639 14.9189 17.7885C14.2091 19.6623 13.8502 21.6504 13.8601 23.6539C13.8493 25.6886 14.208 27.7085 14.9189 29.6154C15.5881 31.3694 16.6027 32.9715 17.9026 34.3269C19.2245 35.623 20.7963 36.6371 22.5226 37.3077C24.4122 38.0947 26.443 38.4874 28.4901 38.4615C30.5054 38.4797 32.5031 38.0871 34.3614 37.3077C36.0761 36.6148 37.6438 35.6034 38.9814 34.3269C40.2812 32.9715 41.2958 31.3694 41.9651 29.6154C43.3803 25.7998 43.3803 21.604 41.9651 17.7885C41.317 16.0522 40.2989 14.4774 38.9814 13.1731ZM38.8851 23.6539C38.9112 25.1241 38.6833 26.5879 38.2114 27.9808C37.7048 29.2669 36.9529 30.4425 35.9976 31.4423C35.0369 32.4246 33.8923 33.2087 32.6289 33.75C31.3069 34.2534 29.9048 34.514 28.4901 34.5192C27.0432 34.5235 25.6079 34.2628 24.2551 33.75C22.9847 33.2299 21.8389 32.4469 20.8933 31.4525C19.9477 30.4581 19.2237 29.2749 18.7689 27.9808C18.2172 26.6067 17.9551 25.1337 17.9989 23.6539C17.9655 22.206 18.2275 20.7665 18.7689 19.4231C19.2423 18.1425 19.9616 16.9666 20.8864 15.9615C21.8471 14.9793 22.9917 14.1952 24.2551 13.6539C25.6079 13.1411 27.0432 12.8803 28.4901 12.8846C29.9048 12.8899 31.3069 13.1505 32.6289 13.6539C33.8923 14.1952 35.0369 14.9793 35.9976 15.9615C36.9529 16.9613 37.7048 18.1369 38.2114 19.4231C38.6761 20.7846 38.904 22.2155 38.8851 23.6539Z" fill="white"/>
<path d="M63.525 19.0385C61.9054 18.1431 60.0822 17.6795 58.2312 17.6923C56.4112 17.683 54.62 18.1469 53.0337 19.0385C51.5505 19.9285 50.3235 21.1874 49.4725 22.6923C48.5763 24.3103 48.1122 26.1316 48.125 27.9808V44.4231C48.1155 44.6904 48.162 44.9567 48.2615 45.2051C48.3609 45.4534 48.5111 45.6783 48.7025 45.8654C48.8717 46.0848 49.0911 46.2604 49.3423 46.3776C49.5935 46.4947 49.8692 46.5499 50.1462 46.5385C50.4381 46.5575 50.7303 46.5063 50.9982 46.3892C51.2662 46.272 51.5021 46.0924 51.6862 45.8654C51.8776 45.6783 52.0278 45.4534 52.1272 45.2051C52.2267 44.9567 52.2732 44.6904 52.2637 44.4231V35.2885C53.0082 36.1453 53.9269 36.8336 54.9587 37.3077C56.2266 37.8882 57.6066 38.1836 59.0012 38.1731C60.7074 38.2433 62.3921 37.7721 63.8137 36.8269C65.2701 35.9343 66.4652 34.6741 67.2787 33.1731C68.0965 31.5639 68.5251 29.7855 68.53 27.9808C68.5224 26.1887 68.0591 24.428 67.1836 22.8638C66.3082 21.2997 65.0492 19.9834 63.525 19.0385ZM64.4875 27.9808C64.4953 29.1281 64.1962 30.2568 63.6212 31.25C63.1217 32.2415 62.355 33.0741 61.4075 33.6538C60.4324 34.1785 59.3385 34.4434 58.2312 34.4231C57.1559 34.4312 56.0962 34.1665 55.1512 33.6538C54.182 33.1009 53.4084 32.2609 52.9375 31.25C52.3488 30.2625 52.0487 29.1299 52.0712 27.9808C52.0508 26.8015 52.3502 25.6386 52.9375 24.6154C53.4327 23.6209 54.2004 22.7872 55.1512 22.2115C56.0962 21.6988 57.1559 21.4342 58.2312 21.4423C59.3385 21.422 60.4324 21.6869 61.4075 22.2115C62.3344 22.816 63.0954 23.6423 63.6212 24.6154C64.2085 25.6386 64.5079 26.8015 64.4875 27.9808Z" fill="white"/>
<path d="M87.4913 18.9423C85.9717 18.0691 84.2385 17.6362 82.4863 17.6923C80.6743 17.6492 78.8826 18.0801 77.2888 18.9423C75.8056 19.8323 74.5786 21.0912 73.7275 22.5961C72.8528 24.2532 72.4217 26.1081 72.4763 27.9808C72.4635 29.8299 72.9276 31.6512 73.8238 33.2692C74.6913 34.827 75.9962 36.0971 77.5775 36.9231C79.2664 37.8091 81.1574 38.2399 83.0638 38.1731C84.2727 38.155 85.4724 37.9606 86.625 37.5961C87.7192 37.1889 88.7548 36.6393 89.705 35.9615C89.9171 35.8075 90.089 35.6048 90.2062 35.3705C90.3235 35.1363 90.3827 34.8773 90.3788 34.6154C90.3571 34.3483 90.2769 34.0893 90.1438 33.8567C90.0108 33.624 89.8281 33.4235 89.6088 33.2692C89.2677 32.9565 88.8205 32.7847 88.3576 32.7885C87.8979 32.8018 87.4565 32.9714 87.1063 33.2692C86.5398 33.6657 85.9254 33.9888 85.2775 34.2308C84.5684 34.4894 83.8187 34.6196 83.0638 34.6154C81.8205 34.6514 80.5904 34.3525 79.5025 33.75C78.477 33.2083 77.6385 32.3707 77.0963 31.3461C76.7256 30.7568 76.4647 30.1052 76.3263 29.4231H89.8013C90.0481 29.4578 90.2996 29.4323 90.5343 29.3485C90.769 29.2648 90.9799 29.1254 91.1488 28.9423C91.3377 28.7737 91.4873 28.5658 91.5871 28.3333C91.6869 28.1007 91.7344 27.8491 91.7263 27.5961C91.7502 25.8406 91.3888 24.1011 90.6675 22.5C89.9588 21.0433 88.8592 19.8117 87.4913 18.9423ZM76.9038 24.5192C77.4033 23.5277 78.17 22.6951 79.1175 22.1154C80.1318 21.5045 81.3029 21.2036 82.4863 21.25C83.4935 21.2164 84.4881 21.4816 85.3445 22.0121C86.201 22.5426 86.881 23.3146 87.2988 24.2308C87.5919 24.8033 87.7871 25.4208 87.8763 26.0577H76.4225C76.5249 25.5285 76.6863 25.0125 76.9038 24.5192Z" fill="white"/>
<path d="M113.767 21.9231C113.043 20.577 111.939 19.4735 110.591 18.75C109.18 17.9645 107.586 17.5663 105.971 17.5961C104.42 17.5911 102.895 17.9887 101.544 18.75L100.1 19.7115C100.093 19.2043 99.8851 18.7204 99.5224 18.3654C99.3206 18.1667 99.0791 18.0127 98.8138 17.9133C98.5485 17.814 98.2653 17.7714 97.9824 17.7884C97.7149 17.779 97.4483 17.8255 97.1997 17.9248C96.9511 18.0241 96.7259 18.1742 96.5387 18.3654C96.1556 18.7851 95.9488 19.3359 95.9612 19.9038V35.9615C95.9441 36.2441 95.9867 36.527 96.0862 36.7921C96.1857 37.0571 96.3399 37.2983 96.5387 37.5C96.7259 37.6912 96.9511 37.8412 97.1997 37.9405C97.4483 38.0399 97.7149 38.0863 97.9824 38.0769C98.2642 38.0906 98.5456 38.0453 98.8088 37.9439C99.0719 37.8425 99.3109 37.6871 99.5103 37.4879C99.7098 37.2886 99.8653 37.0499 99.9668 36.787C100.068 36.5241 100.114 36.2429 100.1 35.9615V25.8654C100.072 25.044 100.308 24.2352 100.774 23.5577C101.269 22.923 101.892 22.399 102.602 22.0192C103.449 21.6351 104.368 21.4383 105.297 21.4423C106.26 21.4175 107.215 21.6149 108.089 22.0192C108.931 22.4112 109.635 23.0479 110.11 23.8461C110.61 24.8607 110.842 25.9861 110.784 27.1154V35.9615C110.767 36.2441 110.809 36.527 110.909 36.7921C111.008 37.0571 111.162 37.2983 111.361 37.5C111.781 37.8827 112.333 38.0893 112.901 38.0769C113.169 38.0863 113.435 38.0399 113.684 37.9405C113.933 37.8412 114.158 37.6912 114.345 37.5C114.544 37.2983 114.698 37.0571 114.797 36.7921C114.897 36.527 114.939 36.2441 114.922 35.9615V27.1154C114.974 25.3157 114.577 23.5315 113.767 21.9231Z" fill="white"/>
<path d="M152.364 21.3461C150.902 21.3107 149.462 20.9838 148.129 20.3846C147.35 20.0248 146.685 19.4596 146.204 18.75C145.854 18.1718 145.686 17.5017 145.722 16.8269C145.684 16.2262 145.818 15.627 146.107 15.0992C146.397 14.5714 146.831 14.1368 147.359 13.8461C148.673 13.1905 150.125 12.8607 151.594 12.8846C152.513 12.8868 153.425 13.0495 154.289 13.3654C154.976 13.5617 155.605 13.9251 156.117 14.4231C156.7 14.9079 157.189 15.4943 157.561 16.1538C157.835 16.6473 158.28 17.0236 158.812 17.2115C159.102 17.3126 159.413 17.3391 159.716 17.2887C160.018 17.2383 160.304 17.1125 160.545 16.9231C160.781 16.8115 160.979 16.634 161.115 16.4121C161.252 16.1902 161.321 15.9335 161.315 15.6731C161.407 15.0988 161.268 14.5116 160.93 14.0385C160.323 13.07 159.577 12.1953 158.716 11.4423C157.853 10.6647 156.836 10.0753 155.732 9.71153C154.509 9.22382 153.199 8.99464 151.882 9.03845C150.112 9.01241 148.351 9.30556 146.685 9.90384C145.202 10.3756 143.895 11.2798 142.931 12.5C141.96 13.6929 141.448 15.1936 141.487 16.7308C141.493 17.8159 141.737 18.8865 142.203 19.8669C142.669 20.8472 143.345 21.7133 144.182 22.4038C146.231 23.997 148.714 24.9353 151.305 25.0961C153.615 25.2885 155.155 25.8654 156.117 26.8269C156.564 27.2486 156.921 27.755 157.169 28.3163C157.417 28.8776 157.55 29.4827 157.561 30.0961C157.58 30.9769 157.272 31.8335 156.695 32.5C156.082 33.1723 155.325 33.6981 154.481 34.0385C153.452 34.3535 152.382 34.5155 151.305 34.5192C150.32 34.5473 149.34 34.384 148.417 34.0385C147.594 33.7713 146.815 33.3824 146.107 32.8846C145.557 32.47 145.098 31.9462 144.76 31.3461C144.68 31.0875 144.544 30.8498 144.361 30.6502C144.177 30.4507 143.952 30.2943 143.701 30.1923C143.495 30.0437 143.255 29.9484 143.004 29.9149C142.752 29.8813 142.495 29.9106 142.257 30C141.967 30.0255 141.686 30.1167 141.436 30.2666C141.186 30.4166 140.973 30.6213 140.814 30.8654C140.67 31.1139 140.594 31.3958 140.594 31.6827C140.594 31.9696 140.67 32.2515 140.814 32.5C141.318 33.7004 142.111 34.7575 143.124 35.5769C144.212 36.5386 145.491 37.2595 146.877 37.6923C148.299 38.1963 149.796 38.4563 151.305 38.4615C152.61 38.4649 153.908 38.2704 155.155 37.8846C156.365 37.59 157.509 37.0679 158.524 36.3461C159.465 35.6497 160.252 34.7657 160.834 33.75C161.436 32.5935 161.734 31.3031 161.7 30C161.747 28.8925 161.556 27.7877 161.141 26.7597C160.726 25.7316 160.096 24.8038 159.294 24.0385C157.304 22.4707 154.891 21.5331 152.364 21.3461Z" fill="#0240C8"/>
<path d="M175.271 33.9423H174.116C173.764 33.9537 173.415 33.8811 173.097 33.7306C172.779 33.5801 172.501 33.356 172.287 33.0769C171.794 32.4128 171.555 31.5942 171.614 30.7692V22.1154H174.405C174.899 22.134 175.382 21.9619 175.752 21.6346C175.929 21.4768 176.072 21.2845 176.171 21.0694C176.27 20.8544 176.324 20.6214 176.33 20.3846C176.345 20.1308 176.301 19.877 176.201 19.6433C176.1 19.4096 175.947 19.2025 175.752 19.0385C175.382 18.7112 174.899 18.539 174.405 18.5577H171.614V13.5577C171.623 13.2904 171.577 13.024 171.477 12.7757C171.378 12.5273 171.228 12.3025 171.036 12.1154C170.616 11.7326 170.065 11.5261 169.496 11.5385C168.96 11.5385 168.446 11.7512 168.067 12.1299C167.688 12.5086 167.475 13.0222 167.475 13.5577V18.5577H166.031C165.537 18.539 165.054 18.7112 164.684 19.0385C164.489 19.2025 164.336 19.4096 164.236 19.6433C164.135 19.877 164.091 20.1308 164.106 20.3846C164.099 20.6235 164.147 20.8608 164.247 21.0777C164.347 21.2947 164.497 21.4854 164.684 21.6346C165.054 21.9619 165.537 22.134 166.031 22.1154H167.475V30.7692C167.453 32.0711 167.751 33.3585 168.341 34.5192C168.897 35.5533 169.688 36.4425 170.651 37.1154C171.707 37.7228 172.898 38.0536 174.116 38.0769H174.694C175.321 38.0919 175.934 37.8879 176.426 37.5C176.653 37.3161 176.833 37.0804 176.951 36.8127C177.068 36.545 177.119 36.2531 177.1 35.9615C177.1 35.4414 176.931 34.9353 176.619 34.5192C176.45 34.3305 176.242 34.181 176.009 34.0814C175.776 33.9817 175.524 33.9342 175.271 33.9423Z" fill="#0240C8"/>
<path d="M197.698 17.7885C197.129 17.7761 196.578 17.9827 196.158 18.3654C195.959 18.5671 195.805 18.8083 195.705 19.0733C195.606 19.3383 195.563 19.6213 195.58 19.9039V30.0962C195.609 30.8582 195.371 31.6065 194.906 32.2116C194.442 32.8996 193.814 33.4613 193.078 33.8462C192.238 34.2494 191.314 34.4471 190.383 34.4231C189.421 34.438 188.468 34.241 187.591 33.8462C186.751 33.4403 186.073 32.7626 185.666 31.9231C185.128 30.954 184.862 29.8577 184.896 28.75V19.9039C184.91 19.6224 184.865 19.3412 184.763 19.0783C184.662 18.8155 184.506 18.5767 184.307 18.3775C184.107 18.1782 183.868 18.0229 183.605 17.9215C183.342 17.82 183.061 17.7747 182.779 17.7885C182.511 17.7791 182.245 17.8255 181.996 17.9248C181.747 18.0242 181.522 18.1742 181.335 18.3654C181.136 18.5671 180.982 18.8083 180.883 19.0733C180.783 19.3383 180.741 19.6213 180.758 19.9039V28.75C180.706 30.5497 181.103 32.3339 181.913 33.9423C182.637 35.2884 183.741 36.3919 185.089 37.1154C186.5 37.9009 188.094 38.299 189.709 38.2692C191.262 38.288 192.791 37.8895 194.136 37.1154L195.58 36.1539C195.628 36.6517 195.83 37.1222 196.158 37.5C196.578 37.8828 197.129 38.0893 197.698 38.0769C197.965 38.0864 198.232 38.0399 198.48 37.9406C198.729 37.8413 198.954 37.6912 199.141 37.5C199.509 37.0709 199.713 36.5262 199.719 35.9616V19.9039C199.736 19.6213 199.693 19.3383 199.594 19.0733C199.494 18.8083 199.34 18.5671 199.141 18.3654C198.954 18.1742 198.729 18.0242 198.48 17.9248C198.232 17.8255 197.965 17.7791 197.698 17.7885Z" fill="#0240C8"/>
<path d="M223.108 9.32694C222.539 9.31454 221.988 9.52112 221.568 9.90386C221.185 10.3236 220.978 10.8744 220.99 11.4423V20.5769C220.246 19.7201 219.327 19.0318 218.295 18.5577C217.027 17.9772 215.647 17.6818 214.253 17.6923C212.552 17.6701 210.882 18.1375 209.44 19.0385C207.984 19.9311 206.789 21.1913 205.975 22.6923C205.157 24.3015 204.729 26.0799 204.724 27.8846C204.711 29.7338 205.175 31.5551 206.071 33.1731C206.993 34.6887 208.285 35.9459 209.825 36.8269C211.393 37.7641 213.197 38.2314 215.023 38.1731C216.82 38.2466 218.597 37.7775 220.124 36.8269C221.657 35.9692 222.923 34.7046 223.781 33.1731C224.717 31.5711 225.184 29.7387 225.129 27.8846V11.4423C225.141 10.8744 224.935 10.3236 224.551 9.90386C224.364 9.71268 224.139 9.56263 223.89 9.46329C223.642 9.36395 223.375 9.31751 223.108 9.32694ZM221.183 27.8846C221.203 29.0639 220.904 30.2268 220.316 31.25C219.845 32.261 219.072 33.1009 218.103 33.6539C217.158 34.1666 216.098 34.4312 215.023 34.4231C213.918 34.4197 212.83 34.1561 211.846 33.6539C210.896 33.0782 210.128 32.2445 209.633 31.25C209.045 30.2268 208.746 29.0639 208.766 27.8846C208.744 26.7355 209.044 25.6029 209.633 24.6154C210.104 23.6045 210.877 22.7645 211.846 22.2116C212.83 21.7093 213.918 21.4458 215.023 21.4423C216.098 21.4342 217.158 21.6989 218.103 22.2116C219.072 22.7645 219.845 23.6045 220.316 24.6154C220.905 25.6029 221.205 26.7355 221.183 27.8846Z" fill="#0240C8"/>
<path d="M245.149 18.9423C243.633 18.0594 241.897 17.6258 240.144 17.6923C238.361 17.6384 236.598 18.0705 235.042 18.9423C233.559 19.8323 232.332 21.0912 231.481 22.5962C230.597 24.2361 230.134 26.0698 230.134 27.9327C230.134 29.7956 230.597 31.6293 231.481 33.2692C232.403 34.7848 233.694 36.042 235.235 36.9231C236.933 37.7852 238.817 38.2146 240.721 38.1731C241.931 38.1622 243.131 37.9676 244.282 37.5962C245.415 37.2084 246.485 36.6577 247.459 35.9615C247.848 35.6163 248.09 35.1341 248.132 34.6154C248.047 34.0886 247.773 33.6104 247.362 33.2692C247.012 32.9714 246.571 32.8019 246.111 32.7885C245.622 32.8022 245.151 32.9705 244.764 33.2692C244.21 33.6859 243.592 34.0106 242.935 34.2308C242.226 34.4894 241.476 34.6196 240.721 34.6154C239.479 34.6378 238.253 34.3397 237.16 33.75C236.157 33.1784 235.326 32.3482 234.754 31.3462C234.415 30.751 234.186 30.0995 234.08 29.4231H247.555C247.8 29.4375 248.046 29.4024 248.278 29.3198C248.509 29.2372 248.722 29.1088 248.902 28.9423C249.079 28.769 249.215 28.5578 249.298 28.3246C249.381 28.0914 249.411 27.8423 249.384 27.5962C249.453 25.8365 249.09 24.0867 248.325 22.5C247.644 21.0251 246.538 19.7866 245.149 18.9423ZM234.08 26.0577L234.657 24.5192C235.092 23.5151 235.833 22.6738 236.775 22.1154C237.799 21.5287 238.963 21.2296 240.144 21.25C241.19 21.2268 242.223 21.493 243.127 22.0192C243.933 22.5702 244.567 23.3367 244.956 24.2308C245.249 24.8033 245.444 25.4208 245.534 26.0577H234.08Z" fill="#0240C8"/>
<path d="M268.249 18.75C266.868 17.9766 265.308 17.5788 263.725 17.5962C262.172 17.5774 260.643 17.9759 259.297 18.75C258.767 18.9905 258.28 19.3152 257.854 19.7115C257.762 19.2259 257.565 18.7663 257.276 18.3654C256.98 18.0513 256.595 17.8351 256.173 17.7458C255.75 17.6564 255.311 17.6983 254.913 17.8657C254.515 18.0331 254.177 18.318 253.946 18.6823C253.715 19.0466 253.601 19.4728 253.619 19.9038V35.9615C253.602 36.2441 253.644 36.5271 253.744 36.7921C253.843 37.0571 253.997 37.2983 254.196 37.5C254.62 37.8784 255.168 38.0876 255.736 38.0876C256.304 38.0876 256.853 37.8784 257.276 37.5C257.475 37.2983 257.629 37.0571 257.729 36.7921C257.828 36.5271 257.871 36.2441 257.854 35.9615V25.8654C257.826 25.044 258.062 24.2353 258.527 23.5577C259.001 22.9021 259.629 22.3736 260.356 22.0192C261.166 21.6274 262.056 21.4298 262.955 21.4423C263.947 21.4287 264.932 21.6253 265.842 22.0192C266.637 22.444 267.302 23.0752 267.767 23.8462C268.305 24.8503 268.57 25.9773 268.537 27.1154V35.9615C268.52 36.2441 268.563 36.5271 268.662 36.7921C268.762 37.0571 268.916 37.2983 269.115 37.5C269.302 37.6912 269.527 37.8412 269.776 37.9406C270.024 38.0399 270.291 38.0863 270.559 38.0769C271.127 38.0893 271.679 37.8827 272.099 37.5C272.298 37.2983 272.452 37.0571 272.551 36.7921C272.651 36.5271 272.693 36.2441 272.676 35.9615V27.1154C272.728 25.3158 272.331 23.5315 271.521 21.9231C270.762 20.5702 269.625 19.4676 268.249 18.75Z" fill="#0240C8"/>
<path d="M288.269 34.5192C288.1 34.3305 287.892 34.181 287.659 34.0814C287.426 33.9817 287.175 33.9342 286.921 33.9423H285.766C285.415 33.9537 285.065 33.8811 284.747 33.7306C284.429 33.5801 284.152 33.356 283.938 33.0769C283.444 32.4128 283.205 31.5942 283.264 30.7692V22.1154H286.055C286.549 22.134 287.032 21.9619 287.403 21.6346C287.579 21.4768 287.722 21.2845 287.821 21.0694C287.92 20.8544 287.975 20.6214 287.98 20.3846C287.995 20.1308 287.951 19.877 287.851 19.6433C287.75 19.4096 287.597 19.2025 287.403 19.0385C287.032 18.7112 286.549 18.539 286.055 18.5577H283.264V13.5577C283.273 13.2904 283.227 13.024 283.127 12.7757C283.028 12.5273 282.878 12.3025 282.686 12.1154C282.266 11.7326 281.715 11.5261 281.146 11.5385C280.881 11.5385 280.618 11.5907 280.373 11.6922C280.128 11.7936 279.905 11.9424 279.717 12.1299C279.529 12.3174 279.381 12.54 279.279 12.785C279.177 13.03 279.125 13.2925 279.125 13.5577V18.5577H277.681C277.187 18.539 276.704 18.7112 276.334 19.0385C276.139 19.2025 275.986 19.4096 275.886 19.6433C275.785 19.877 275.741 20.1308 275.756 20.3846C275.762 20.6214 275.816 20.8544 275.915 21.0694C276.015 21.2845 276.157 21.4768 276.334 21.6346C276.704 21.9619 277.187 22.134 277.681 22.1154H279.125V30.7692C279.103 32.0711 279.401 33.3585 279.991 34.5192C280.547 35.5533 281.339 36.4425 282.301 37.1154C283.357 37.7228 284.549 38.0536 285.766 38.0769H286.344C286.971 38.0919 287.584 37.8879 288.076 37.5C288.304 37.3161 288.483 37.0804 288.601 36.8127C288.718 36.545 288.769 36.2531 288.75 35.9615C288.75 35.4414 288.581 34.9353 288.269 34.5192Z" fill="#0240C8"/>
</g>
<defs>
<clipPath id="clip0">
<rect width="288.75" height="50" fill="white"/>
</clipPath>
</defs>
</svg>
