<svg width="51" height="91" viewBox="0 0 51 91" fill="none" xmlns="http://www.w3.org/2000/svg">
<path d="M1.35526 3.43387C8.30516 7.99497 15.1916 12.3849 20.6334 18.2179C28.3679 26.3564 33.221 36.2004 34.753 46.8582C36.2851 57.516 34.4477 68.6508 29.4073 79.2539L22.5313 67.5509C20.6718 64.3714 14.5721 67.9427 16.4707 71.0611L27.1123 88.9152C28.0775 90.5172 31.1238 90.2235 32.561 88.9271C33.9981 87.6307 36.1968 85.5516 38.0502 83.876C42.7015 80.8187 46.6681 77.1103 49.7191 72.9667C51.8916 69.9826 46.885 67.6594 44.16 70.1543L37.8384 75.9637C43.1354 62.5192 43.667 48.5923 39.3686 35.8759C34.2712 21.1276 21.6774 6.18418 3.77223 0.608746C1.81782 0.00963494 -0.28561 2.34557 1.35526 3.43387Z" fill="#467FFF"/>
</svg>
