<svg width="131" height="131" viewBox="0 0 131 131" fill="none" xmlns="http://www.w3.org/2000/svg">
<g clip-path="url(#clip0)">
<path d="M66.4023 5.9844L74.1271 3.08987C74.5517 2.92807 75.0119 2.88043 75.461 2.95176C75.9101 3.0231 76.3324 3.21088 76.6849 3.49612L83.1308 8.62502C83.6358 9.0092 84.2599 9.20672 84.8957 9.18362L93.1576 8.80276C93.6113 8.77692 94.0637 8.8715 94.4683 9.07678C94.8729 9.28206 95.2151 9.59062 95.4597 9.97073L99.9871 16.8262C100.355 17.3406 100.886 17.7164 101.496 17.8926L109.451 20.0508C109.89 20.1732 110.29 20.4057 110.613 20.7258C110.935 21.046 111.17 21.443 111.293 21.8789L113.467 29.7754C113.645 30.3808 114.023 30.9088 114.541 31.2735L121.448 35.7676C121.831 36.0104 122.141 36.3501 122.348 36.7518C122.555 37.1534 122.65 37.6024 122.624 38.0528L122.241 46.2539C122.217 46.8851 122.416 47.5046 122.803 48.0059L127.97 54.4043C128.258 54.7543 128.447 55.1734 128.519 55.6192C128.59 56.0651 128.543 56.5219 128.38 56.9434L125.464 64.6113C125.232 65.1991 125.232 65.8517 125.464 66.4395L128.38 74.1074C128.543 74.529 128.59 74.9857 128.519 75.4316C128.447 75.8774 128.258 76.2965 127.97 76.6465L122.803 83.0449C122.416 83.5462 122.217 84.1657 122.241 84.7969L122.624 92.9981C122.65 93.4484 122.555 93.8974 122.348 94.2991C122.141 94.7007 121.831 95.0404 121.448 95.2832L114.541 99.7774C114.023 100.142 113.645 100.67 113.467 101.275L111.293 109.172C111.17 109.608 110.935 110.005 110.613 110.325C110.29 110.645 109.89 110.878 109.451 111L101.496 113.158C100.886 113.334 100.355 113.71 99.9871 114.225L95.4597 121.105C95.2101 121.479 94.8661 121.781 94.4622 121.982C94.0583 122.182 93.6085 122.274 93.1576 122.248L84.8957 121.867C84.2599 121.844 83.6358 122.042 83.1308 122.426L76.6849 127.58C76.3276 127.857 75.9044 128.037 75.4563 128.104C75.0083 128.17 74.5504 128.121 74.1271 127.961L66.4023 125.066C65.8102 124.837 65.1528 124.837 64.5606 125.066L56.8359 127.961C56.4125 128.121 55.9547 128.17 55.5066 128.104C55.0585 128.037 54.6354 127.857 54.278 127.58L47.8322 122.426C47.3272 122.042 46.7031 121.844 46.0672 121.867L37.8053 122.248C37.3545 122.274 36.9047 122.182 36.5007 121.982C36.0968 121.781 35.7529 121.479 35.5032 121.105L30.9758 114.225C30.6084 113.71 30.0765 113.334 29.4667 113.158L21.5117 111C21.0726 110.878 20.6726 110.645 20.35 110.325C20.0275 110.005 19.7934 109.608 19.67 109.172L17.4958 101.275C17.3183 100.67 16.9397 100.142 16.4215 99.7774L9.51527 95.2832C9.13235 95.0404 8.8215 94.7007 8.6147 94.2991C8.4079 93.8974 8.31262 93.4484 8.33865 92.9981L8.72233 84.7969C8.7456 84.1657 8.54662 83.5462 8.1596 83.0449L2.9927 76.6465C2.70534 76.2965 2.51617 75.8774 2.44431 75.4316C2.37245 74.9857 2.42044 74.529 2.58344 74.1074L5.49941 66.4395C5.73056 65.8517 5.73056 65.1991 5.49941 64.6113L2.58344 56.9434C2.42044 56.5219 2.37245 56.0651 2.44431 55.6192C2.51617 55.1734 2.70534 54.7543 2.9927 54.4043L8.1596 48.0059C8.54662 47.5046 8.7456 46.8851 8.72233 46.2539L8.33865 38.0528C8.31262 37.6024 8.4079 37.1534 8.6147 36.7518C8.8215 36.3501 9.13235 36.0104 9.51527 35.7676L16.4215 31.2735C16.9397 30.9088 17.3183 30.3808 17.4958 29.7754L19.67 21.8789C19.7934 21.443 20.0275 21.046 20.35 20.7258C20.6726 20.4057 21.0726 20.1732 21.5117 20.0508L29.4667 17.8926C30.0765 17.7164 30.6084 17.3406 30.9758 16.8262L35.5032 9.97073C35.7479 9.59062 36.0901 9.28206 36.4947 9.07678C36.8993 8.8715 37.3517 8.77692 37.8053 8.80276L46.0672 9.18362C46.7031 9.20672 47.3272 9.0092 47.8322 8.62502L54.278 3.49612C54.6306 3.21088 55.0528 3.0231 55.5019 2.95176C55.9511 2.88043 56.4112 2.92807 56.8359 3.08987L64.5606 5.9844C65.1528 6.21384 65.8102 6.21384 66.4023 5.9844Z" fill="#FFC850"/>
<path d="M85.1771 111.127C48.9321 111.127 19.5421 81.9531 19.5421 45.9746C19.5347 36.6609 21.55 27.455 25.4508 18.9844L21.5117 20.0508C21.0726 20.1732 20.6726 20.4057 20.35 20.7258C20.0275 21.046 19.7934 21.443 19.67 21.8789L17.4958 29.7754C17.3183 30.3808 16.9397 30.9088 16.4215 31.2734L9.51527 35.7676C9.13235 36.0104 8.8215 36.3501 8.6147 36.7517C8.4079 37.1534 8.31262 37.6024 8.33865 38.0527L8.72233 46.2539C8.7456 46.8851 8.54662 47.5046 8.1596 48.0059L2.9927 54.4043C2.70534 54.7543 2.51617 55.1734 2.44431 55.6192C2.37245 56.0651 2.42044 56.5218 2.58344 56.9434L5.49941 64.6113C5.73056 65.1991 5.73056 65.8517 5.49941 66.4395L2.58344 74.1074C2.42044 74.5289 2.37245 74.9857 2.44431 75.4315C2.51617 75.8774 2.70534 76.2965 2.9927 76.6465L8.1596 83.0449C8.54662 83.5462 8.7456 84.1657 8.72233 84.7969L8.33865 92.998C8.31262 93.4484 8.4079 93.8974 8.6147 94.299C8.8215 94.7007 9.13235 95.0404 9.51527 95.2832L16.4215 99.7773C16.9397 100.142 17.3183 100.67 17.4958 101.275L19.67 109.172C19.7934 109.608 20.0275 110.005 20.35 110.325C20.6726 110.645 21.0726 110.878 21.5117 111L29.4667 113.158C30.0765 113.334 30.6084 113.71 30.9758 114.225L35.5032 121.105C35.7529 121.479 36.0968 121.781 36.5007 121.982C36.9047 122.182 37.3545 122.274 37.8053 122.248L46.0672 121.867C46.7031 121.844 47.3272 122.042 47.8322 122.426L54.278 127.58C54.6354 127.857 55.0585 128.037 55.5066 128.104C55.9547 128.17 56.4125 128.121 56.8359 127.961L64.5606 125.066C65.1528 124.837 65.8102 124.837 66.4023 125.066L74.1271 127.961C74.5504 128.121 75.0083 128.17 75.4563 128.104C75.9044 128.037 76.3276 127.857 76.6849 127.58L83.1308 122.426C83.6358 122.042 84.2599 121.844 84.8957 121.867L93.1576 122.248C93.6085 122.274 94.0583 122.182 94.4622 121.982C94.8661 121.781 95.2101 121.479 95.4597 121.105L99.9871 114.225C100.355 113.71 100.886 113.334 101.496 113.158L109.451 111C109.89 110.878 110.29 110.645 110.613 110.325C110.935 110.005 111.17 109.608 111.293 109.172L112.367 105.262C103.834 109.134 94.5598 111.134 85.1771 111.127Z" fill="#E1A546"/>
<path d="M65.4815 115.469C93.2688 115.469 115.795 93.1084 115.795 65.5254C115.795 37.9424 93.2688 15.582 65.4815 15.582C37.6943 15.582 15.1682 37.9424 15.1682 65.5254C15.1682 93.1084 37.6943 115.469 65.4815 115.469Z" fill="#FFDC64"/>
<path d="M86.0724 101.047C85.8919 100.747 85.6425 100.495 85.3446 100.309C85.0467 100.124 84.7089 100.011 84.3586 99.9805C76.6226 99.1833 69.1781 96.6166 62.6098 92.4821C56.0415 88.3476 50.5282 82.7578 46.503 76.1517C42.4778 69.5457 40.0503 62.1033 39.411 54.409C38.7718 46.7147 39.9383 38.978 42.8188 31.8067C42.9606 31.494 42.9938 31.1435 42.9132 30.8101C42.8327 30.4766 42.643 30.1792 42.3739 29.9643C42.1047 29.7494 41.7714 29.6292 41.426 29.6226C41.0807 29.616 40.7429 29.7233 40.4656 29.9278C33.9661 34.4178 28.8174 40.5759 25.5692 47.7445C22.321 54.913 21.0954 62.8228 22.0234 70.6289C24.2743 90.1543 40.0052 105.973 59.6496 108.563C68.4225 109.741 77.3486 108.226 85.2283 104.221C85.5 104.074 85.7385 103.873 85.9294 103.631C86.1203 103.389 86.2595 103.111 86.3385 102.814C86.4175 102.517 86.4346 102.207 86.3889 101.903C86.3432 101.599 86.2355 101.308 86.0724 101.047Z" fill="#FFC850"/>
<path d="M98.2989 57.9336C98.2989 56.4925 97.7222 55.1105 96.6957 54.0915C95.6691 53.0725 94.2769 52.5 92.8251 52.5H73.8969C78.987 48.4121 82.4401 42.9277 82.9517 38.4082C83.3098 35.0566 80.9822 31.8828 77.6058 31.832C76.8848 31.8253 76.1696 31.9601 75.5012 32.2286C74.8329 32.497 74.2245 32.8939 73.7111 33.3965C73.1977 33.899 72.7894 34.4973 72.5096 35.1569C72.2299 35.8165 72.0841 36.5245 72.0808 37.2402C72.0808 39.1953 67.8091 45.0098 59.803 47.5742C58.533 48.0245 57.392 48.7737 56.4778 49.7578C55.7871 50.4687 53.9711 52.6777 52.2061 53.8711C52.0424 53.4656 51.7598 53.1181 51.395 52.8737C51.0302 52.6293 50.6 52.4991 50.1598 52.5H37.038C36.4613 52.5 35.9083 52.7274 35.5006 53.1321C35.0928 53.5369 34.8638 54.0858 34.8638 54.6582V89.418C34.8638 89.9904 35.0928 90.5393 35.5006 90.9441C35.9083 91.3488 36.4613 91.5762 37.038 91.5762H50.1598C50.4475 91.5795 50.733 91.5262 50.9997 91.4192C51.2665 91.3123 51.5092 91.1538 51.7138 90.9531C51.9184 90.7524 52.0808 90.5133 52.1917 90.2498C52.3025 89.9863 52.3596 89.7036 52.3596 89.418H87.3768C88.5369 89.418 89.6494 88.9605 90.4697 88.1463C91.29 87.3321 91.7508 86.2277 91.7508 85.0762C91.7508 83.9247 91.29 82.8203 90.4697 82.0061C89.6494 81.1918 88.5369 80.7344 87.3768 80.7344H89.551C90.7111 80.7344 91.8236 80.277 92.6439 79.4627C93.4642 78.6485 93.925 77.5441 93.925 76.3926C93.925 75.2411 93.4642 74.1367 92.6439 73.3225C91.8236 72.5082 90.7111 72.0508 89.551 72.0508H91.7508C92.8564 71.9669 93.8893 71.4718 94.6429 70.6644C95.3964 69.857 95.8151 68.7969 95.8151 67.6963C95.8151 66.5956 95.3964 65.5356 94.6429 64.7282C93.8893 63.9208 92.8564 63.4257 91.7508 63.3418H92.8251C93.5427 63.3451 94.2539 63.2077 94.9179 62.9374C95.5819 62.6671 96.1855 62.2693 96.6941 61.7668C97.2028 61.2642 97.6064 60.6669 97.8818 60.0091C98.1572 59.3513 98.2989 58.646 98.2989 57.9336Z" fill="white"/>
<path d="M85.1771 76.3926C84.87 76.3596 84.5594 76.3911 84.2654 76.4852C83.9715 76.5792 83.7008 76.7337 83.4709 76.9384C83.241 77.1432 83.0572 77.3938 82.9314 77.6738C82.8055 77.9537 82.7405 78.2569 82.7405 78.5635C82.7405 78.8701 82.8055 79.1732 82.9314 79.4532C83.0572 79.7332 83.241 79.9837 83.4709 80.1885C83.7008 80.3933 83.9715 80.5477 84.2654 80.6418C84.5594 80.7358 84.87 80.7674 85.1771 80.7344H89.3209C91.495 80.7344 93.5158 79.2363 93.8739 77.1035C93.8947 76.8671 93.9032 76.6298 93.8994 76.3926H85.1771Z" fill="#FFFAB4"/>
<path d="M85.1771 67.709C84.87 67.676 84.5594 67.7075 84.2654 67.8016C83.9715 67.8956 83.7008 68.0501 83.4709 68.2548C83.241 68.4596 83.0572 68.7102 82.9314 68.9902C82.8055 69.2701 82.7405 69.5733 82.7405 69.8799C82.7405 70.1865 82.8055 70.4896 82.9314 70.7696C83.0572 71.0496 83.241 71.3001 83.4709 71.5049C83.7008 71.7097 83.9715 71.8641 84.2654 71.9582C84.5594 72.0522 84.87 72.0838 85.1771 72.0508H91.495C93.6948 72.0508 95.7155 70.5527 96.048 68.4199C96.0896 68.1853 96.1067 67.9471 96.0992 67.709H85.1771Z" fill="#FFFAB4"/>
<path d="M85.1771 59C84.87 58.967 84.5594 58.9985 84.2654 59.0926C83.9715 59.1866 83.7008 59.3411 83.4709 59.5459C83.241 59.7506 83.0572 60.0012 82.9314 60.2812C82.8055 60.5612 82.7405 60.8643 82.7405 61.1709C82.7405 61.4775 82.8055 61.7806 82.9314 62.0606C83.0572 62.3406 83.241 62.5911 83.4709 62.7959C83.7008 63.0007 83.9715 63.1552 84.2654 63.2492C84.5594 63.3433 84.87 63.3748 85.1771 63.3418H92.8251C94.0844 63.3429 95.3052 62.9109 96.2798 62.1193C97.2545 61.3277 97.9228 60.2255 98.1711 59H85.1771Z" fill="#FFFAB4"/>
<path d="M100.345 57.9336C100.345 55.9538 99.5528 54.0551 98.1425 52.6551C96.7322 51.2552 94.8195 50.4687 92.825 50.4687H79.0125C82.3633 46.7109 84.5631 42.4453 84.9979 38.6367C85.1276 37.4952 85.0172 36.3394 84.6738 35.2424C84.3304 34.1455 83.7614 33.1311 83.0028 32.2637C82.3288 31.4988 81.4995 30.884 80.5694 30.4596C79.6393 30.0351 78.6293 29.8106 77.6057 29.8008H77.5545C76.5694 29.7941 75.5926 29.9809 74.6805 30.3505C73.7685 30.7201 72.939 31.2651 72.2401 31.9543C71.5411 32.6434 70.9863 33.463 70.6078 34.3658C70.2292 35.2687 70.0344 36.2369 70.0344 37.2148C69.9576 37.6465 69.1903 39.1445 67.2975 40.9219C64.9741 43.0776 62.1952 44.6911 59.1634 45.6445C57.5623 46.1959 56.1219 47.1287 54.9685 48.3613C54.0993 49.2953 53.1586 50.1611 52.1549 50.9512C51.5382 50.6345 50.854 50.4691 50.1597 50.4687H37.0379C36.4836 50.4687 35.9348 50.5771 35.4228 50.7876C34.9107 50.9982 34.4454 51.3068 34.0535 51.6958C33.6616 52.0848 33.3507 52.5467 33.1386 53.055C32.9265 53.5632 32.8174 54.108 32.8174 54.6582V89.418C32.8174 90.5291 33.262 91.5947 34.0535 92.3803C34.845 93.166 35.9185 93.6074 37.0379 93.6074H50.1597C50.9166 93.6133 51.6609 93.4158 52.3139 93.0358C52.9668 92.6558 53.5041 92.1076 53.8687 91.4492H87.3767C88.5102 91.4496 89.6236 91.1521 90.6037 90.587C91.5838 90.0219 92.3958 89.2093 92.957 88.2318C93.5182 87.2542 93.8088 86.1467 93.7991 85.0216C93.7894 83.8965 93.4798 82.794 92.9017 81.8262C93.839 81.2569 94.6134 80.4584 95.1509 79.507C95.6883 78.5556 95.9707 77.4833 95.9712 76.3926C95.985 75.2474 95.6749 74.1214 95.0759 73.1426C96.0197 72.5783 96.8005 71.7815 97.3428 70.8295C97.885 69.8775 98.1703 68.8026 98.1709 67.709C98.1794 66.4207 97.7862 65.1614 97.0455 64.1035C98.0623 63.4218 98.8949 62.5027 99.4702 61.4269C100.046 60.3511 100.346 59.1516 100.345 57.9336ZM92.825 61.3105H91.7507C91.461 61.2784 91.1678 61.3074 90.8901 61.3954C90.6125 61.4835 90.3567 61.6288 90.1395 61.8217C89.9222 62.0146 89.7484 62.2508 89.6295 62.5149C89.5105 62.7791 89.449 63.0651 89.449 63.3545C89.449 63.6438 89.5105 63.9299 89.6295 64.194C89.7484 64.4581 89.9222 64.6944 90.1395 64.8873C90.3567 65.0802 90.6125 65.2254 90.8901 65.3135C91.1678 65.4016 91.461 65.4305 91.7507 65.3984C92.3227 65.4582 92.8521 65.7261 93.2369 66.1504C93.6218 66.5747 93.8347 67.1254 93.8347 67.6963C93.8347 68.2672 93.6218 68.8179 93.2369 69.2422C92.8521 69.6665 92.3227 69.9344 91.7507 69.9941H89.5509C89.0444 70.0503 88.5765 70.2898 88.2366 70.6668C87.8968 71.0439 87.7089 71.5321 87.7089 72.0381C87.7089 72.544 87.8968 73.0322 88.2366 73.4093C88.5765 73.7864 89.0444 74.0259 89.5509 74.082C89.8754 74.0481 90.2034 74.0823 90.5136 74.1823C90.8239 74.2824 91.1095 74.446 91.352 74.6627C91.5944 74.8793 91.7883 75.1442 91.921 75.44C92.0537 75.7358 92.1223 76.056 92.1223 76.3799C92.1223 76.7037 92.0537 77.0239 91.921 77.3197C91.7883 77.6156 91.5944 77.8804 91.352 78.0971C91.1095 78.3137 90.8239 78.4774 90.5136 78.5774C90.2034 78.6774 89.8754 78.7116 89.5509 78.6777H87.3767C87.0871 78.6456 86.7938 78.6746 86.5162 78.7626C86.2385 78.8507 85.9827 78.9959 85.7655 79.1889C85.5483 79.3818 85.3745 79.618 85.2555 79.8821C85.1365 80.1463 85.075 80.4323 85.075 80.7217C85.075 81.011 85.1365 81.2971 85.2555 81.5612C85.3745 81.8253 85.5483 82.0616 85.7655 82.2545C85.9827 82.4474 86.2385 82.5926 86.5162 82.6807C86.7938 82.7688 87.0871 82.7977 87.3767 82.7656C87.9487 82.8254 88.4782 83.0932 88.863 83.5175C89.2478 83.9418 89.4607 84.4925 89.4607 85.0635C89.4607 85.6344 89.2478 86.1851 88.863 86.6094C88.4782 87.0337 87.9487 87.3015 87.3767 87.3613H54.4058V67.709C54.4058 67.1702 54.1902 66.6536 53.8065 66.2727C53.4227 65.8917 52.9022 65.6777 52.3595 65.6777C51.8168 65.6777 51.2963 65.8917 50.9126 66.2727C50.5288 66.6536 50.3132 67.1702 50.3132 67.709V89.418C50.3071 89.4538 50.2883 89.4863 50.2601 89.5096C50.232 89.5329 50.1964 89.5454 50.1597 89.5449H37.0379C37.0039 89.5449 36.9714 89.5315 36.9474 89.5077C36.9234 89.4839 36.91 89.4516 36.91 89.418V54.6582C36.91 54.6245 36.9234 54.5922 36.9474 54.5684C36.9714 54.5446 37.0039 54.5312 37.0379 54.5312H50.1597C50.1964 54.5307 50.232 54.5432 50.2601 54.5665C50.2883 54.5898 50.3071 54.6223 50.3132 54.6582V59C50.3132 59.5387 50.5288 60.0554 50.9126 60.4363C51.2963 60.8172 51.8168 61.0312 52.3595 61.0312C52.9022 61.0312 53.4227 60.8172 53.8065 60.4363C54.1902 60.0554 54.4058 59.5387 54.4058 59V54.3789C55.6701 53.3933 56.8586 52.3155 57.9612 51.1543C58.6259 50.4126 59.4715 49.853 60.4168 49.5293C64.146 48.352 67.5511 46.3361 70.3669 43.6387C72.7201 41.3535 74.127 38.9414 74.127 37.2402C74.1276 36.3448 74.4864 35.4863 75.1245 34.8535C75.7819 34.2216 76.6651 33.8746 77.5801 33.8887C78.0263 33.8891 78.4673 33.9845 78.8733 34.1684C79.2792 34.3524 79.6407 34.6206 79.9333 34.9551C80.3072 35.399 80.5862 35.9138 80.7533 36.4682C80.9204 37.0225 80.9721 37.6048 80.9053 38.1797C80.4705 42.2168 77.1964 47.2187 72.6178 50.9258C72.2825 51.1856 72.0396 51.545 71.9245 51.9515C71.8095 52.358 71.8283 52.7904 71.9784 53.1855C72.117 53.5803 72.3764 53.9222 72.7203 54.1635C73.0643 54.4048 73.4756 54.5334 73.8968 54.5312H92.825C93.2983 54.4905 93.7749 54.5479 94.2246 54.6998C94.6744 54.8517 95.0874 55.0947 95.4375 55.4134C95.7876 55.7321 96.0672 56.1196 96.2584 56.5513C96.4496 56.9829 96.5484 57.4493 96.5484 57.9209C96.5484 58.3924 96.4496 58.8588 96.2584 59.2905C96.0672 59.7222 95.7876 60.1097 95.4375 60.4284C95.0874 60.7471 94.6744 60.9901 94.2246 61.142C93.7749 61.2938 93.2983 61.3512 92.825 61.3105Z" fill="black"/>
<path d="M43.6118 80.8359C43.3221 80.8038 43.0289 80.8328 42.7512 80.9209C42.4736 81.0089 42.2178 81.1542 42.0006 81.3471C41.7833 81.54 41.6095 81.7762 41.4905 82.0403C41.3716 82.3045 41.3101 82.5906 41.3101 82.8799C41.3101 83.1692 41.3716 83.4553 41.4905 83.7194C41.6095 83.9836 41.7833 84.2198 42.0006 84.4127C42.2178 84.6056 42.4736 84.7508 42.7512 84.8389C43.0289 84.927 43.3221 84.9559 43.6118 84.9238C44.1183 84.8677 44.5863 84.6282 44.9261 84.2511C45.2659 83.874 45.4538 83.3858 45.4538 82.8799C45.4538 82.3739 45.2659 81.8857 44.9261 81.5087C44.5863 81.1316 44.1183 80.8921 43.6118 80.8359Z" fill="black"/>
<path d="M127.304 65.5244L130.834 56.2822C130.961 55.9483 130.997 55.5871 130.939 55.235C130.88 54.8829 130.73 54.5522 130.502 54.2763L124.286 46.5576L124.746 36.6806C124.762 36.3269 124.686 35.9751 124.525 35.6592C124.363 35.3434 124.122 35.0743 123.826 34.8779L115.487 29.4443L112.878 19.8974C112.777 19.5607 112.594 19.2543 112.344 19.006C112.093 18.7577 111.785 18.5753 111.446 18.4756L101.828 15.8857L96.3541 7.60837C96.1562 7.31371 95.8851 7.07474 95.567 6.9146C95.2488 6.75446 94.8944 6.67858 94.538 6.69431L84.5879 7.15134L76.8119 0.981419C76.534 0.755045 76.2009 0.605349 75.8462 0.547403C75.4914 0.489457 75.1276 0.525306 74.7912 0.651341L65.4806 4.15525L56.1699 0.651341C55.8336 0.525306 55.4697 0.489457 55.115 0.547403C54.7602 0.605349 54.4271 0.755045 54.1492 0.981419L46.3733 7.15134L36.4232 6.69431C36.0664 6.67606 35.7111 6.75083 35.3925 6.91119C35.0738 7.07155 34.8031 7.31191 34.6071 7.60837L29.1332 15.8857L19.5156 18.4756C19.1764 18.5753 18.8677 18.7577 18.6176 19.006C18.3674 19.2543 18.1837 19.5607 18.0832 19.8974L15.4742 29.4443L7.13555 34.8779C6.8387 35.0743 6.59796 35.3434 6.43664 35.6592C6.27531 35.9751 6.19887 36.3269 6.21471 36.6806L6.67513 46.5576L0.459504 54.2763C0.231453 54.5522 0.0806485 54.8829 0.0222733 55.235C-0.036102 55.5871 1.24802e-05 55.9483 0.126981 56.2822L3.65684 65.5244L0.126981 74.7666C1.24802e-05 75.1004 -0.036102 75.4616 0.0222733 75.8138C0.0806485 76.1659 0.231453 76.4965 0.459504 76.7724L6.67513 84.4912L6.21471 94.3681C6.1937 94.7226 6.26788 95.0763 6.42966 95.393C6.59145 95.7098 6.83504 95.9782 7.13555 96.1709L15.4742 101.604L18.0832 111.151C18.1837 111.488 18.3674 111.794 18.6176 112.043C18.8677 112.291 19.1764 112.473 19.5156 112.573L29.1332 115.163L34.6071 123.44C34.8049 123.735 35.076 123.974 35.3942 124.134C35.7124 124.294 36.0668 124.37 36.4232 124.354L46.3733 123.897L54.1492 130.067C54.4271 130.294 54.7602 130.443 55.115 130.501C55.4697 130.559 55.8336 130.523 56.1699 130.397L65.4806 126.894L74.7912 130.397C75.0306 130.477 75.2807 130.519 75.533 130.524C75.9997 130.523 76.4516 130.362 76.8119 130.067L84.5879 123.897L94.538 124.354C94.8944 124.37 95.2488 124.294 95.567 124.134C95.8851 123.974 96.1562 123.735 96.3541 123.44L101.828 115.163L111.446 112.573C111.785 112.473 112.093 112.291 112.344 112.043C112.594 111.794 112.777 111.488 112.878 111.151L115.487 101.604L123.826 96.1709C124.126 95.9782 124.37 95.7098 124.531 95.393C124.693 95.0763 124.767 94.7226 124.746 94.3681L124.286 84.4912L130.502 76.7724C130.73 76.4965 130.88 76.1659 130.939 75.8138C130.997 75.4616 130.961 75.1004 130.834 74.7666L127.304 65.5244ZM123.186 66.2353L126.588 75.122L120.603 82.5361C120.293 82.926 120.13 83.4109 120.142 83.9072L120.603 93.4033L112.597 98.6084C112.183 98.8842 111.883 99.2989 111.752 99.7763L109.22 108.942L99.9862 111.456C99.5053 111.586 99.0875 111.883 98.8096 112.294L93.566 120.241L83.9996 119.784C83.4996 119.772 83.0111 119.934 82.6183 120.241L75.1493 126.183L66.1968 122.806C65.7345 122.637 65.2266 122.637 64.7644 122.806L55.8118 126.183L48.3428 120.241C47.95 119.934 47.4616 119.772 46.9616 119.784L37.3952 120.241L32.1515 112.294C31.8736 111.883 31.4559 111.586 30.9749 111.456L21.741 108.942L19.2087 99.7763C19.078 99.2989 18.7783 98.8842 18.3646 98.6084L10.3585 93.4033L10.8189 83.9072C10.8308 83.4109 10.668 82.926 10.3585 82.5361L4.37305 75.122L7.77501 66.2353C7.92914 65.7737 7.92914 65.2751 7.77501 64.8134L4.37305 55.9267L10.3585 48.5127C10.668 48.1227 10.8308 47.6379 10.8189 47.1416L10.3585 37.6455L18.3646 32.4404C18.7783 32.1645 19.078 31.7499 19.2087 31.2724L21.741 22.1064L30.9749 19.5927C31.4559 19.463 31.8736 19.1655 32.1515 18.7549L37.3952 10.8076L46.9616 11.2646C47.4616 11.2765 47.95 11.1149 48.3428 10.8076L55.8118 4.86618L64.7644 8.24314C65.2249 8.42159 65.7362 8.42159 66.1968 8.24314L75.1493 4.86618L82.6183 10.8076C83.0111 11.1149 83.4996 11.2765 83.9996 11.2646L93.566 10.8076L98.8096 18.7549C99.0875 19.1655 99.5053 19.463 99.9862 19.5927L109.22 22.1064L111.752 31.2724C111.883 31.7499 112.183 32.1645 112.597 32.4404L120.603 37.6455L120.142 47.1416C120.13 47.6379 120.293 48.1227 120.603 48.5127L126.588 55.9267L123.186 64.8134C123.032 65.2751 123.032 65.7737 123.186 66.2353Z" fill="black"/>
<path d="M99.5268 31.6289C100.038 32.1113 100.524 32.6191 100.985 33.127C101.178 33.3325 101.412 33.497 101.671 33.6104C101.931 33.7239 102.21 33.784 102.494 33.7871C103.006 33.792 103.501 33.6011 103.875 33.2539C104.076 33.0757 104.239 32.8593 104.355 32.6175C104.471 32.3758 104.536 32.1135 104.548 31.8461C104.56 31.5787 104.518 31.3117 104.424 31.0607C104.331 30.8097 104.188 30.5799 104.003 30.3848C103.491 29.8262 102.98 29.2676 102.443 28.7598L100.806 27.1855C100.608 27.0038 100.375 26.8626 100.122 26.77C99.8689 26.6774 99.5998 26.6352 99.3303 26.6458C99.0607 26.6564 98.7958 26.7197 98.5509 26.8319C98.3059 26.9441 98.0856 27.1031 97.9025 27.2998C97.7194 27.4965 97.5772 27.7271 97.4839 27.9784C97.3906 28.2297 97.3481 28.4968 97.3588 28.7644C97.3695 29.032 97.4332 29.2949 97.5462 29.5381C97.6592 29.7812 97.8194 29.9999 98.0176 30.1816L99.5268 31.6289Z" fill="black"/>
<path d="M31.2828 31.6289C39.0434 23.9178 49.2208 19.0639 60.1352 17.8683C71.0495 16.6727 82.0482 19.207 91.316 25.0528C91.5404 25.1982 91.7917 25.2978 92.0553 25.3459C92.3189 25.394 92.5895 25.3896 92.8514 25.3329C93.1132 25.2762 93.3611 25.1683 93.5805 25.0156C93.8 24.8629 93.9867 24.6684 94.1297 24.4434C94.4201 23.9875 94.5184 23.4367 94.4036 22.9095C94.2888 22.3824 93.97 21.9211 93.5158 21.625C82.9636 14.9601 70.3565 12.2647 57.9759 14.0268C45.5953 15.7889 34.2591 21.8919 26.0186 31.2316C17.7782 40.5712 13.1779 52.5304 13.0503 64.945C12.9227 77.3596 17.2762 89.4095 25.323 98.9141C25.5108 99.145 25.7486 99.3311 26.0186 99.4586C26.2887 99.586 26.5842 99.6516 26.8833 99.6504C27.3703 99.6519 27.842 99.4808 28.2133 99.168C28.6222 98.8147 28.8753 98.3164 28.9183 97.7801C28.9614 97.2437 28.7909 96.7119 28.4436 96.2989C20.6843 87.1195 16.6718 75.3873 17.1974 63.416C17.723 51.4447 22.7485 40.1034 31.2828 31.6289Z" fill="black"/>
<path d="M106.765 36.9863C106.538 37.1307 106.341 37.3183 106.187 37.5384C106.033 37.7585 105.924 38.0067 105.867 38.2686C105.81 38.5306 105.806 38.8012 105.855 39.0649C105.903 39.3285 106.004 39.5799 106.151 39.8047C112.329 49.4606 114.822 60.9915 113.181 72.3132C111.539 83.6348 105.872 94 97.2026 101.535C88.5333 109.07 77.4344 113.278 65.912 113.398C54.3897 113.518 43.2042 109.542 34.3777 102.189C34.1711 102.018 33.9324 101.888 33.6754 101.808C33.4183 101.728 33.1479 101.699 32.8795 101.722C32.6111 101.746 32.35 101.822 32.1111 101.945C31.8722 102.069 31.6603 102.238 31.4873 102.443C31.3143 102.648 31.1837 102.885 31.1029 103.14C31.0221 103.396 30.9928 103.664 31.0165 103.931C31.0403 104.197 31.1167 104.456 31.2413 104.693C31.366 104.93 31.5365 105.141 31.743 105.313C41.1696 113.177 53.091 117.484 65.4046 117.475L67.5532 117.424C76.7436 117.045 85.6716 114.271 93.4392 109.381C101.207 104.49 107.54 97.6553 111.802 89.5641C116.065 81.4728 118.106 72.4102 117.72 63.2875C117.334 54.1649 114.535 45.3039 109.605 37.5957C109.459 37.3699 109.27 37.1748 109.048 37.0218C108.827 36.8688 108.577 36.7608 108.313 36.7042C108.049 36.6476 107.776 36.6433 107.511 36.6917C107.245 36.7402 106.992 36.8403 106.765 36.9863Z" fill="black"/>
</g>
<defs>
<clipPath id="clip0">
<rect y="0.525391" width="130.963" height="130" fill="white"/>
</clipPath>
</defs>
</svg>
