<svg width="130" height="130" viewBox="0 0 130 130" fill="none" xmlns="http://www.w3.org/2000/svg">
<g clip-path="url(#clip0)">
<path d="M60.9375 23.2578C70.1797 27.3457 79.168 27.7265 84.4746 25.3906C87.0137 24.2988 88.7402 22.5722 89.2226 20.3379C84.9316 21.9121 82.1387 20.1601 80.082 17.8242C76.4766 13.7617 71.4746 11.4257 65.4824 11.4511C56.0879 11.4765 50.1719 15.539 45.8809 25.0859C46.084 25.1367 53.4219 19.9316 60.9375 23.2578Z" fill="#AD826E"/>
<path d="M84.4745 25.3906C79.1679 27.7266 70.1796 27.3457 60.9374 23.2578C53.4218 19.9316 46.0839 25.1367 45.8807 25.0859C43.1132 36.1563 48.4198 46.7695 57.1288 50.6289V54.6152H73.8612V50.2988C78.3605 48.1521 81.9215 44.4369 83.8757 39.8507C85.8298 35.2645 86.0428 30.1227 84.4745 25.3906Z" fill="#FFD3A3"/>
<path d="M73.8613 54.6152H57.1289H55.25L60.6328 63.0195H71.6523L76.2988 54.6152H73.8613Z" fill="#164FCE"/>
<path d="M71.6523 63.0195H60.6328L58.8809 74.5469H73.8613L71.6523 63.0195Z" fill="#164FCE"/>
<path d="M71.6523 63.0195L73.8613 74.5469H97.4746L95.6465 103.924C98.084 105.371 103.01 105.701 105.854 104.559C108.176 103.606 110.03 101.777 111.013 99.4671C111.997 97.1576 112.032 94.5535 111.109 92.2188L98.084 59.8711C97.142 57.5399 95.3139 55.6774 93.0006 54.6921C90.6874 53.7068 88.0778 53.6792 85.7441 54.6152H76.2988L71.6523 63.0195Z" fill="#ED1F34"/>
<path d="M58.8807 74.5469L60.6327 63.0195L55.2499 54.6153H43.8495C41.5194 53.6801 38.9134 53.7084 36.6042 54.694C34.295 55.6795 32.4717 57.5417 31.535 59.8711L18.5096 92.2188C18.0427 93.3739 17.8082 94.6099 17.8197 95.8558C17.8313 97.1017 18.0885 98.3331 18.5768 99.4794C19.065 100.626 19.7747 101.664 20.665 102.536C21.5554 103.408 22.609 104.095 23.7655 104.559C26.8631 105.803 32.0428 105.295 34.5819 103.492L32.7791 74.5469H58.8807Z" fill="#ED1F34"/>
<path d="M73.8613 74.5469H32.7793L34.582 103.492L35.2422 114.029H94.9863L95.6465 103.924L97.4746 74.5469H73.8613ZM65.4316 90.1113C68.8848 90.1113 71.6523 92.4473 71.6523 95.291C71.6523 98.1348 68.8848 100.496 65.4316 100.496C61.9785 100.496 59.2109 98.1601 59.2109 95.291C59.2109 92.4219 62.0039 90.1113 65.4316 90.1113Z" fill="#F0F0F0"/>
<path d="M65.4316 100.471C68.8672 100.471 71.6524 98.1517 71.6524 95.291C71.6524 92.4303 68.8672 90.1113 65.4316 90.1113C61.996 90.1113 59.2109 92.4303 59.2109 95.291C59.2109 98.1517 61.996 100.471 65.4316 100.471Z" fill="#ED1F34"/>
<path d="M95.0117 114.029H35.2422L34.582 103.492C32.043 105.295 26.8633 105.803 23.7656 104.559C22.0683 103.868 20.6056 102.704 19.552 101.204C18.4985 99.7052 17.8987 97.9344 17.8242 96.1035H6.85547L2.53906 125.988H126.471L120.936 96.1035H111.77C111.707 97.934 111.114 99.7069 110.064 101.208C109.014 102.708 107.552 103.872 105.854 104.559C103.01 105.701 98.084 105.371 95.6465 103.924L95.0117 114.029Z" fill="#AD826E"/>
<path d="M112.912 33.1094C120.947 33.1094 127.461 26.5956 127.461 18.5605C127.461 10.5255 120.947 4.01172 112.912 4.01172C104.877 4.01172 98.3633 10.5255 98.3633 18.5605C98.3633 26.5956 104.877 33.1094 112.912 33.1094Z" fill="#F0F0F0"/>
<path d="M112.912 35.6484C116.292 35.6484 119.596 34.6463 122.406 32.7686C125.216 30.891 127.406 28.2222 128.699 25.0998C129.993 21.9774 130.331 18.5416 129.672 15.2269C129.012 11.9121 127.385 8.86738 124.995 6.47759C122.605 4.08781 119.561 2.46034 116.246 1.801C112.931 1.14166 109.495 1.48006 106.373 2.7734C103.25 4.06674 100.582 6.25694 98.704 9.06703C96.8264 11.8771 95.8242 15.1809 95.8242 18.5606C95.8309 23.0905 97.6334 27.433 100.837 30.6361C104.04 33.8392 108.382 35.6417 112.912 35.6484ZM112.912 6.55079C115.287 6.55079 117.609 7.25515 119.584 8.5748C121.559 9.89445 123.099 11.7701 124.008 13.9646C124.917 16.1591 125.155 18.5739 124.691 20.9035C124.228 23.2332 123.084 25.3731 121.404 27.0527C119.725 28.7323 117.585 29.8762 115.255 30.3396C112.925 30.803 110.511 30.5651 108.316 29.6561C106.122 28.7471 104.246 27.2078 102.926 25.2328C101.607 23.2578 100.902 20.9359 100.902 18.5606C100.902 16.9834 101.213 15.4217 101.817 13.9646C102.42 12.5075 103.305 11.1836 104.42 10.0684C105.535 8.95316 106.859 8.06853 108.316 7.46498C109.773 6.86143 111.335 6.55079 112.912 6.55079Z" fill="black"/>
<path d="M65.4316 103.035C70.2813 103.035 74.1914 99.5566 74.1914 95.291C74.1914 91.0254 70.2813 87.5723 65.4316 87.5723C60.582 87.5723 56.6719 91.0508 56.6719 95.291C56.6719 99.5312 60.6074 103.035 65.4316 103.035ZM65.4316 92.6504C67.4375 92.6504 69.1133 93.8691 69.1133 95.291C69.1133 96.7129 67.4375 97.957 65.4316 97.957C63.4258 97.957 61.75 96.7383 61.75 95.291C61.75 93.8437 63.4512 92.6504 65.4316 92.6504Z" fill="black"/>
<path d="M54.4883 86.9629H54.666C55.3394 86.9629 55.9852 86.6954 56.4614 86.2192C56.9376 85.743 57.2051 85.0972 57.2051 84.4238C57.2051 83.7504 56.9376 83.1046 56.4614 82.6284C55.9852 82.1523 55.3394 81.8848 54.666 81.8848H54.4883C53.8149 81.8848 53.1691 82.1523 52.6929 82.6284C52.2167 83.1046 51.9492 83.7504 51.9492 84.4238C51.9492 85.0972 52.2167 85.743 52.6929 86.2192C53.1691 86.6954 53.8149 86.9629 54.4883 86.9629Z" fill="black"/>
<path d="M123.449 95.6465C123.337 95.0615 123.025 94.5338 122.566 94.1539C122.108 93.774 121.531 93.5656 120.936 93.5645H114.131C113.973 92.7834 113.743 92.0184 113.445 91.2793L100.445 58.9062C99.2775 56.0404 97.0527 53.7332 94.2313 52.4619C91.4098 51.1906 88.2076 51.0525 85.2872 52.0762H76.4005V51.8477C79.9278 49.8349 82.8624 46.9281 84.9084 43.42C86.9544 39.9118 88.0397 35.9264 88.0548 31.8652C88.0529 30.114 87.857 28.3683 87.4708 26.6602C89.7052 25.2129 91.1778 23.2578 91.711 20.8711C91.8091 20.4245 91.7847 19.9597 91.6405 19.5258C91.4963 19.0919 91.2376 18.7049 90.8918 18.4059C90.5459 18.1068 90.1257 17.9067 89.6755 17.8267C89.2253 17.7466 88.7618 17.7896 88.3341 17.9512C87.622 18.234 86.8656 18.3887 86.0997 18.4082C84.627 18.4082 83.3575 17.6973 81.9864 16.1484C77.797 11.4004 72.1095 8.91211 65.5587 8.91211H65.4825C55.0216 8.9375 48.2677 13.584 43.5958 23.9688H43.5704V24.0703C43.5653 24.1243 43.5479 24.1764 43.5196 24.2227C43.5196 24.2734 43.4942 24.2988 43.4942 24.3496C43.485 24.3599 43.478 24.372 43.4737 24.3851C43.4693 24.3982 43.4677 24.412 43.4688 24.4258C43.4596 24.4361 43.4527 24.4482 43.4483 24.4613C43.4439 24.4743 43.4423 24.4882 43.4434 24.502C42.0154 30.1965 42.543 36.2059 44.9415 41.5645C46.901 45.9568 50.1978 49.6179 54.3614 52.0254H44.3321C41.4057 50.9982 38.1956 51.1404 35.3715 52.4224C32.5474 53.7044 30.3271 56.0271 29.1739 58.9062L16.1485 91.2793C15.8585 92.0191 15.6376 92.784 15.4884 93.5645H6.85555C6.24379 93.5645 5.65264 93.7855 5.19081 94.1867C4.72898 94.5879 4.42752 95.1423 4.34187 95.748L0.025467 125.633C-0.0284096 125.99 -0.00408625 126.354 0.0967516 126.7C0.197589 127.046 0.37253 127.367 0.609451 127.639C0.848924 127.916 1.14507 128.139 1.47794 128.292C1.81081 128.446 2.17267 128.526 2.53914 128.527H126.471C126.844 128.53 127.213 128.449 127.551 128.291C127.89 128.133 128.188 127.901 128.426 127.613C128.663 127.327 128.836 126.992 128.932 126.633C129.028 126.274 129.046 125.898 128.984 125.531L123.449 95.6465ZM85.7442 57.1543C86.0682 57.1532 86.3882 57.084 86.6837 56.9512C88.3943 56.2663 90.3067 56.288 92.0013 57.0116C93.696 57.7351 95.0343 59.1014 95.7227 60.8105L108.748 93.1836C109.087 94.0291 109.255 94.9336 109.242 95.8446C109.229 96.7555 109.035 97.6548 108.672 98.4902C108.322 99.3304 107.807 100.092 107.157 100.729C106.507 101.365 105.736 101.865 104.889 102.197C103.238 102.857 100.318 102.832 98.2872 102.273L100.014 74.6992C100.039 74.3515 99.9914 74.0023 99.8733 73.6742C99.7552 73.3462 99.5695 73.0466 99.3282 72.7949C99.0893 72.5443 98.8016 72.3451 98.4828 72.2098C98.1641 72.0744 97.821 72.0057 97.4747 72.0078H75.9688L74.3185 63.4512L77.797 57.1543H85.7442ZM36.1055 86.9629H46.7442C47.4176 86.9629 48.0634 86.6954 48.5396 86.2192C49.0158 85.743 49.2833 85.0972 49.2833 84.4238C49.2833 83.7504 49.0158 83.1046 48.5396 82.6284C48.0634 82.1523 47.4176 81.8848 46.7442 81.8848H35.7755L35.4708 77.0859H94.7833L92.6251 111.49H37.629L36.1055 86.9629ZM72.0079 57.1543L70.1544 60.4805H62.0294L59.8966 57.1543H72.0079ZM62.8165 65.5586H69.5704L70.7891 72.0078H61.8516L62.8165 65.5586ZM65.5079 13.9902H65.5587C70.6114 13.9902 74.9786 15.8945 78.1778 19.5C79.8028 21.3535 81.5294 22.5215 83.4083 23.1055H83.3575C81.5802 23.8418 79.2696 24.248 76.5528 24.248C72.0333 24.248 66.8536 23.0801 61.9532 20.8965C59.9514 20.0221 57.79 19.5725 55.6056 19.5762C54.316 19.5857 53.031 19.7304 51.7716 20.0078C55.1485 15.8184 59.4395 14.0156 65.5079 13.9902ZM48.0899 26.7871C49.5372 26 52.3556 24.6797 55.6056 24.6797C57.0902 24.6751 58.5598 24.9777 59.922 25.5684C65.5079 28.0566 71.2716 29.3516 76.5528 29.3516C78.6213 29.3739 80.6847 29.1437 82.6974 28.666C82.8807 29.7226 82.9742 30.7929 82.9766 31.8652C82.9649 35.2441 82.0011 38.5513 80.1958 41.4075C78.3904 44.2637 75.8167 46.5533 72.7696 48.0137C72.3337 48.2144 71.9651 48.537 71.7084 48.9424C71.4516 49.3479 71.3175 49.8189 71.3223 50.2988V52.0762H59.6681V50.6289C59.6681 50.137 59.5238 49.6558 59.253 49.2451C58.9822 48.8344 58.5968 48.5122 58.1446 48.3184C50.5274 44.9414 46.338 35.8262 48.0899 26.7871ZM20.8712 93.1836L33.8966 60.8105C34.2348 59.9652 34.7363 59.1947 35.3724 58.5432C36.0085 57.8916 36.7668 57.3718 37.6038 57.0134C38.4409 56.655 39.3403 56.4651 40.2508 56.4544C41.1613 56.4437 42.065 56.6125 42.9102 56.9512C43.2074 57.0787 43.5264 57.1476 43.8497 57.1543H53.8536L57.9923 63.5781L56.7227 72.0078H32.7794C32.4331 72.0057 32.09 72.0744 31.7713 72.2098C31.4525 72.3451 31.1648 72.5443 30.9259 72.7949C30.6846 73.0466 30.4988 73.3462 30.3807 73.6742C30.2626 74.0023 30.2148 74.3515 30.2403 74.6992L31.9415 102.02C29.8341 102.807 26.5841 102.959 24.7052 102.197C23.0024 101.509 21.6423 100.174 20.9234 98.4836C20.2046 96.7936 20.1858 94.8874 20.8712 93.1836ZM5.45906 123.449L9.03914 98.6426H15.6407C15.7901 99.2686 15.994 99.8803 16.2501 100.471C16.8655 101.927 17.7636 103.247 18.8924 104.354C20.0211 105.461 21.3582 106.333 22.8263 106.92C24.4417 107.521 26.1556 107.814 27.879 107.783C29.3613 107.79 30.8381 107.602 32.2716 107.225L32.7286 114.182C32.7672 114.824 33.0482 115.428 33.5148 115.871C33.9814 116.314 34.5988 116.563 35.2423 116.568H95.0118C95.6552 116.563 96.2727 116.314 96.7393 115.871C97.2059 115.428 97.4869 114.824 97.5255 114.182L97.9571 107.428C99.1704 107.662 100.403 107.781 101.639 107.783C103.395 107.813 105.142 107.521 106.793 106.92C108.26 106.336 109.595 105.465 110.72 104.358C111.845 103.25 112.737 101.928 113.344 100.471C113.6 99.8803 113.804 99.2686 113.953 98.6426H118.828L123.424 123.449H5.45906Z" fill="black"/>
<path d="M109.104 22.6484H113.725C114.398 22.6442 115.044 22.3805 115.527 21.9121C116 21.4314 116.265 20.7837 116.264 20.1094V12.8477C116.264 12.1743 115.996 11.5284 115.52 11.0523C115.044 10.5761 114.398 10.3086 113.725 10.3086C113.051 10.3086 112.405 10.5761 111.929 11.0523C111.453 11.5284 111.186 12.1743 111.186 12.8477V17.5703H109.078C108.405 17.5703 107.759 17.8378 107.283 18.314C106.807 18.7902 106.539 19.436 106.539 20.1094C106.539 20.7828 106.807 21.4286 107.283 21.9048C107.759 22.3809 108.405 22.6484 109.078 22.6484H109.104Z" fill="black"/>
</g>
<defs>
<clipPath id="clip0">
<rect width="130" height="130" fill="white"/>
</clipPath>
</defs>
</svg>
