<svg width="130" height="131" viewBox="0 0 130 131" fill="none" xmlns="http://www.w3.org/2000/svg">
<path d="M89.6036 105.878L108.266 97.0671C110.245 96.0617 112.535 95.8596 114.66 96.5031C116.784 97.1466 118.578 98.5858 119.666 100.52L81.7325 125.073C76.6366 127.418 70.9206 128.059 65.4318 126.901L39.2794 119.563C36.8737 118.874 34.2933 119.156 32.0939 120.35L26.6095 123.27L27.3458 96.5847H27.5743C31.4106 93.8593 35.924 92.2444 40.6185 91.9174C45.3129 91.5904 50.0066 92.564 54.1837 94.7312L55.7325 95.5437C58.1865 96.8087 60.8945 97.503 63.6544 97.5749L79.0411 98.0066C81.3978 98.0717 83.677 98.8626 85.5675 100.271C87.4579 101.68 88.8675 103.638 89.6036 105.878Z" fill="#F7CAA5"/>
<path d="M94.7072 59.0574C94.7072 64.737 93.023 70.2891 89.8675 75.0116C86.7121 79.734 82.2271 83.4147 76.9798 85.5882C71.7325 87.7617 65.9585 88.3304 60.388 87.2224C54.8175 86.1143 49.7006 83.3793 45.6845 79.3632C41.6684 75.3471 38.9334 70.2303 37.8254 64.6597C36.7173 59.0892 37.286 53.3152 39.4595 48.0679C41.633 42.8206 45.3137 38.3357 50.0362 35.1802C54.7586 32.0248 60.3107 30.3406 65.9904 30.3406C73.6065 30.3406 80.9108 33.3661 86.2962 38.7515C91.6817 44.137 94.7072 51.4412 94.7072 59.0574Z" fill="#FFDB66"/>
<path d="M26.6095 123.27L26.5333 126.292L9.67395 125.809L10.6896 88.7898L27.5489 89.2722L27.3458 96.5847L26.6095 123.27Z" fill="#164FCE"/>
<path d="M66.1681 70.6609C65.934 70.6145 65.694 70.6059 65.4572 70.6355C64.2744 70.5096 63.1805 69.949 62.3876 69.0623C61.5948 68.1756 61.1595 67.0261 61.1661 65.8367C61.1661 65.271 60.9414 64.7285 60.5415 64.3285C60.1415 63.9286 59.599 63.7039 59.0333 63.7039C58.4677 63.7039 57.9252 63.9286 57.5252 64.3285C57.1252 64.7285 56.9005 65.271 56.9005 65.8367C56.8974 67.834 57.5522 69.7769 58.7638 71.3648C59.9754 72.9527 61.6764 74.0974 63.6036 74.6218V76.7292C63.571 77.0272 63.6015 77.3286 63.6932 77.6139C63.7848 77.8993 63.9356 78.1621 64.1356 78.3852C64.3356 78.6084 64.5805 78.7869 64.8541 78.9091C65.1278 79.0313 65.4241 79.0944 65.7238 79.0944C66.0235 79.0944 66.3198 79.0313 66.5934 78.9091C66.8671 78.7869 67.1119 78.6084 67.3119 78.3852C67.512 78.1621 67.6627 77.8993 67.7544 77.6139C67.846 77.3286 67.8765 77.0272 67.8439 76.7292V74.7488C70.0335 74.2782 71.9723 73.0158 73.2884 71.2037C74.6046 69.3916 75.2054 67.1574 74.9757 64.9296C74.746 62.7018 73.702 60.6372 72.0437 59.1318C70.3855 57.6264 68.2299 56.7861 65.9904 56.7722C65.0301 56.7772 64.09 56.4971 63.2892 55.9673C62.4883 55.4375 61.8628 54.6818 61.4919 53.7961C61.1209 52.9104 61.0212 51.9346 61.2055 50.9922C61.3897 50.0498 61.8496 49.1833 62.5268 48.5025C63.204 47.8217 64.0681 47.3573 65.0095 47.1681C65.9509 46.9789 66.9273 47.0735 67.8149 47.4398C68.7026 47.8061 69.4615 48.4276 69.9955 49.2257C70.5295 50.0237 70.8146 50.9624 70.8146 51.9226C70.8146 52.4883 71.0393 53.0308 71.4393 53.4307C71.8393 53.8307 72.3817 54.0554 72.9474 54.0554C73.5131 54.0554 74.0555 53.8307 74.4555 53.4307C74.8555 53.0308 75.0802 52.4883 75.0802 51.9226C75.0774 49.8358 74.3567 47.8134 73.039 46.1952C71.7213 44.577 69.8869 43.4614 67.8439 43.0359V41.1062C67.8765 40.8083 67.846 40.5069 67.7544 40.2215C67.6627 39.9362 67.512 39.6734 67.3119 39.4502C67.1119 39.2271 66.8671 39.0486 66.5934 38.9264C66.3198 38.8042 66.0235 38.741 65.7238 38.741C65.4241 38.741 65.1278 38.8042 64.8541 38.9264C64.5805 39.0486 64.3356 39.2271 64.1356 39.4502C63.9356 39.6734 63.7848 39.9362 63.6932 40.2215C63.6015 40.5069 63.571 40.8083 63.6036 41.1062V43.1628C61.4882 43.749 59.6562 45.0808 58.4463 46.9124C57.2363 48.744 56.73 50.9516 57.021 53.1274C57.3119 55.3032 58.3804 57.3002 60.0291 58.7496C61.6777 60.199 63.7952 61.0027 65.9904 61.0125C67.2698 60.9889 68.5063 61.4745 69.4276 62.3626C70.349 63.2506 70.8799 64.4683 70.9035 65.7478C70.927 67.0273 70.4414 68.2637 69.5533 69.1851C68.6653 70.1064 67.4476 70.6373 66.1681 70.6609Z" fill="black"/>
<path d="M35.1407 59.0574C35.1407 65.1588 36.95 71.1233 40.3398 76.1965C43.7296 81.2697 48.5477 85.2238 54.1847 87.5587C59.8217 89.8936 66.0246 90.5045 72.0088 89.3142C77.9931 88.1239 83.4899 85.1857 87.8043 80.8713C92.1187 76.5569 95.0569 71.0601 96.2472 65.0758C97.4375 59.0916 96.8266 52.8888 94.4917 47.2517C92.1567 41.6147 88.2027 36.7967 83.1295 33.4069C78.0563 30.0171 72.0918 28.2078 65.9904 28.2078C57.8085 28.2078 49.9618 31.458 44.1764 37.2434C38.391 43.0288 35.1407 50.8755 35.1407 59.0574ZM65.9904 32.448C71.2543 32.443 76.4014 33.9993 80.7806 36.9201C85.1599 39.841 88.5744 43.995 90.5923 48.8568C92.6102 53.7186 93.1408 59.0696 92.1169 64.233C91.0931 69.3964 88.5608 74.1401 84.8404 77.864C81.12 81.588 76.3787 84.1248 71.2163 85.1536C66.0539 86.1824 60.7024 85.6569 55.8387 83.6436C50.9749 81.6304 46.8176 78.2198 43.8926 73.8434C40.9676 69.4669 39.4064 64.3213 39.4064 59.0574C39.4064 52.0045 42.2064 45.2402 47.1911 40.2507C52.1758 35.2612 58.9375 32.4547 65.9904 32.448Z" fill="black"/>
<path d="M107.326 95.1374L90.6701 103.008C89.5314 100.912 87.8634 99.1496 85.832 97.8978C83.8007 96.646 81.4769 95.9482 79.0919 95.8737L63.7052 95.4675C61.2687 95.3989 58.8803 94.7736 56.7228 93.6393L55.1486 92.8522C51.2033 90.7855 46.8151 89.708 42.3613 89.7125C37.9075 89.7169 33.5214 90.8031 29.5802 92.8776L29.6818 89.3229C29.6885 89.0428 29.64 88.7641 29.539 88.5028C29.438 88.2414 29.2865 88.0025 29.0932 87.7998C28.8998 87.597 28.6684 87.4343 28.4122 87.321C28.1559 87.2077 27.8799 87.1459 27.5998 87.1393L10.7404 86.6823C10.4621 86.6701 10.1842 86.7132 9.92275 86.8091C9.66126 86.905 9.42137 87.0517 9.21695 87.2409C9.01367 87.4348 8.85071 87.667 8.73742 87.9241C8.62413 88.1811 8.56274 88.4581 8.55679 88.7389L7.54116 125.758C7.52744 126.32 7.73571 126.864 8.12076 127.273C8.50581 127.682 9.03656 127.922 9.59781 127.942L26.4826 128.399H26.5334C27.0842 128.393 27.6119 128.177 28.0084 127.795C28.405 127.412 28.6403 126.893 28.6662 126.342V124.565L33.0587 122.229C34.7765 121.297 36.7922 121.078 38.6701 121.62L64.8478 128.958H64.9748C66.8693 129.363 68.8011 129.567 70.7384 129.567C74.8307 129.562 78.8743 128.679 82.5958 126.977L82.8498 126.825L120.783 102.272C121.246 101.988 121.579 101.534 121.712 101.008C121.845 100.481 121.767 99.9235 121.494 99.4538C120.134 97.058 117.906 95.275 115.271 94.4721C112.635 93.6691 109.792 93.9072 107.326 95.1374ZM24.5021 123.219V124.083L11.883 123.753L12.7716 90.9733L25.3908 91.3288L24.5021 123.219ZM80.6916 123.194C76.0695 125.279 70.9082 125.857 65.9396 124.844L39.838 117.507C36.9028 116.688 33.765 117.034 31.0783 118.471L28.8439 119.665L29.4279 97.8796C32.9139 95.5626 36.9575 94.2227 41.1373 93.9994C45.3172 93.7761 49.4804 94.6776 53.1935 96.61L54.7677 97.4225C57.499 98.8514 60.5221 99.6333 63.6037 99.7077L78.965 100.139C80.885 100.186 82.7435 100.826 84.2849 101.972C85.8263 103.117 86.9748 104.713 87.5724 106.538C87.674 106.868 87.7755 107.223 87.8517 107.579L64.924 106.944C64.6273 106.905 64.3258 106.929 64.0389 107.014C63.7521 107.1 63.4865 107.244 63.2592 107.439C63.0319 107.633 62.8482 107.874 62.7198 108.144C62.5915 108.414 62.5215 108.709 62.5143 109.008C62.5071 109.307 62.563 109.604 62.6782 109.88C62.7935 110.156 62.9655 110.405 63.1832 110.61C63.4009 110.816 63.6594 110.973 63.9418 111.072C64.2242 111.171 64.5242 111.209 64.8224 111.184L90.0861 111.895H90.1623C90.7173 111.889 91.2486 111.669 91.6458 111.281C92.043 110.894 92.2755 110.368 92.2951 109.813C92.3199 108.885 92.2433 107.957 92.0666 107.046L109.18 98.9714H109.231C110.413 98.373 111.751 98.1519 113.063 98.3381C114.376 98.5243 115.599 99.1087 116.569 100.012L80.6916 123.194Z" fill="black"/>
<path d="M68.1232 22.3425V3.29956C68.1232 2.7339 67.8985 2.19141 67.4985 1.79143C67.0985 1.39145 66.556 1.16675 65.9904 1.16675C65.4247 1.16675 64.8822 1.39145 64.4822 1.79143C64.0822 2.19141 63.8575 2.7339 63.8575 3.29956V22.3425C63.8575 22.9082 64.0822 23.4507 64.4822 23.8507C64.8822 24.2506 65.4247 24.4753 65.9904 24.4753C66.556 24.4753 67.0985 24.2506 67.4985 23.8507C67.8985 23.4507 68.1232 22.9082 68.1232 22.3425Z" fill="black"/>
<path d="M84.0685 22.2156V12.6433C84.0112 12.121 83.7632 11.6382 83.372 11.2875C82.9807 10.9368 82.4738 10.7429 81.9484 10.7429C81.4229 10.7429 80.916 10.9368 80.5248 11.2875C80.1335 11.6382 79.8855 12.121 79.8282 12.6433V22.2156C79.7956 22.5135 79.8261 22.8149 79.9178 23.1003C80.0094 23.3856 80.1602 23.6484 80.3602 23.8715C80.5602 24.0947 80.8051 24.2732 81.0787 24.3954C81.3523 24.5176 81.6487 24.5808 81.9484 24.5808C82.248 24.5808 82.5444 24.5176 82.818 24.3954C83.0917 24.2732 83.3365 24.0947 83.5365 23.8715C83.7365 23.6484 83.8873 23.3856 83.979 23.1003C84.0706 22.8149 84.1011 22.5135 84.0685 22.2156Z" fill="black"/>
<path d="M52.1779 22.2156V12.6433C52.1779 12.0777 51.9531 11.5352 51.5532 11.1352C51.1532 10.7352 50.6107 10.5105 50.045 10.5105C49.4794 10.5105 48.9369 10.7352 48.5369 11.1352C48.1369 11.5352 47.9122 12.0777 47.9122 12.6433V22.2156C47.9122 22.7812 48.1369 23.3237 48.5369 23.7237C48.9369 24.1237 49.4794 24.3484 50.045 24.3484C50.6107 24.3484 51.1532 24.1237 51.5532 23.7237C51.9531 23.3237 52.1779 22.7812 52.1779 22.2156Z" fill="black"/>
</svg>
