<svg width="130" height="130" viewBox="0 0 130 130" fill="none" xmlns="http://www.w3.org/2000/svg">
<g clip-path="url(#clip0)">
<path d="M39.3555 52.9395H4.46875C3.78861 52.9395 3.13634 53.2096 2.65541 53.6906C2.17448 54.1715 1.9043 54.8238 1.9043 55.5039V83.2051C1.9043 83.8852 2.17448 84.5375 2.65541 85.0184C3.13634 85.4993 3.78861 85.7695 4.46875 85.7695H9.85156V90.8984L18.8398 85.7695H39.3555C40.0356 85.7695 40.6879 85.4993 41.1688 85.0184C41.6497 84.5375 41.9199 83.8852 41.9199 83.2051V55.5039C41.9199 54.8238 41.6497 54.1715 41.1688 53.6906C40.6879 53.2096 40.0356 52.9395 39.3555 52.9395Z" fill="#164FCE"/>
<path d="M90.6445 49.8672H125.531C126.211 49.8672 126.864 50.1374 127.345 50.6183C127.826 51.0992 128.096 51.7515 128.096 52.4316V80.1328C128.096 80.8129 127.826 81.4652 127.345 81.9462C126.864 82.4271 126.211 82.6973 125.531 82.6973H120.148V87.8262L111.16 82.6973H90.6445C89.9644 82.6973 89.3121 82.4271 88.8312 81.9462C88.3503 81.4652 88.0801 80.8129 88.0801 80.1328V52.4316C88.0801 51.7515 88.3503 51.0992 88.8312 50.6183C89.3121 50.1374 89.9644 49.8672 90.6445 49.8672Z" fill="#E28086"/>
<path d="M82.9512 1.9043H125.531C126.211 1.9043 126.864 2.17448 127.345 2.65541C127.826 3.13634 128.096 3.78861 128.096 4.46875V32.1699C128.096 32.8501 127.826 33.5023 127.345 33.9833C126.864 34.4642 126.211 34.7344 125.531 34.7344H120.148V39.8633L111.16 34.7344H82.9512C82.271 34.7344 81.6188 34.4642 81.1378 33.9833C80.6569 33.5023 80.3867 32.8501 80.3867 32.1699V4.46875C80.3867 3.78861 80.6569 3.13634 81.1378 2.65541C81.6188 2.17448 82.271 1.9043 82.9512 1.9043Z" fill="#FFDB66"/>
<path d="M47.0488 1.9043H4.46875C3.78861 1.9043 3.13634 2.17448 2.65541 2.65541C2.17448 3.13634 1.9043 3.78861 1.9043 4.46875V32.1699C1.9043 32.8501 2.17448 33.5023 2.65541 33.9833C3.13634 34.4642 3.78861 34.7344 4.46875 34.7344H9.85156V39.8633L18.8398 34.7344H47.0488C47.729 34.7344 48.3812 34.4642 48.8622 33.9833C49.3431 33.5023 49.6133 32.8501 49.6133 32.1699V4.46875C49.6133 3.78861 49.3431 3.13634 48.8622 2.65541C48.3812 2.17448 47.729 1.9043 47.0488 1.9043Z" fill="#9BD069"/>
<path d="M71.6777 89.1211L87.039 93.2344C89.7671 93.9627 92.1777 95.5728 93.8953 97.814C95.6129 100.055 96.541 102.801 96.5351 105.625V111.668H33.4395V105.625C33.4393 102.799 34.3728 100.052 36.0946 97.8117C37.8165 95.571 40.2303 93.9618 42.9609 93.2344L58.3223 89.1211H71.6777Z" fill="#F6F9F9"/>
<path d="M58.3223 89.1211L50.4766 91.2031L54.2344 103.975L65 95.7734V89.1211H58.3223Z" fill="#DFEAEF"/>
<path d="M71.6777 89.1211L79.5234 91.2031L75.7656 103.975L65 95.7734V89.1211H71.6777Z" fill="#DFEAEF"/>
<path d="M89.0449 93.9453C89.768 95.5762 90.14 97.341 90.1367 99.125V111.693H96.5606V105.625C96.5588 103.163 95.8495 100.753 94.517 98.6821C93.1846 96.6114 91.2852 94.9672 89.0449 93.9453Z" fill="#F1F4F6"/>
<path d="M65 95.7734C64.1243 95.7768 63.2565 95.6072 62.4465 95.2744C61.6364 94.9415 60.9001 94.4521 60.2797 93.834C59.6592 93.216 59.167 92.4815 58.8311 91.6727C58.4952 90.864 58.3223 89.9968 58.3223 89.1211V80.8945H71.6777V89.1211C71.6778 89.9968 71.5048 90.864 71.1689 91.6727C70.8331 92.4815 70.3408 93.216 69.7204 93.834C69.0999 94.4521 68.3636 94.9415 67.5535 95.2744C66.7435 95.6072 65.8757 95.7768 65 95.7734Z" fill="#F1D0A5"/>
<path d="M58.3223 86.1504C62.638 87.7073 67.362 87.7073 71.6777 86.1504V80.8945H58.3223V86.1504Z" fill="#F1B986"/>
<path d="M50.1211 52.9395V67.8184C50.1211 71.7645 51.6887 75.549 54.479 78.3393C57.2694 81.1297 61.0539 82.6973 65 82.6973C68.9461 82.6973 72.7306 81.1297 75.521 78.3393C78.3113 75.549 79.8789 71.7645 79.8789 67.8184V52.9395H50.1211Z" fill="#F1D0A5"/>
<path d="M74.75 52.9395V72.9473C74.7453 75.6376 74.0175 78.2773 72.6426 80.5898C74.8534 79.2721 76.6832 77.4016 77.952 75.1624C79.2208 72.9231 79.8848 70.3921 79.8789 67.8184V52.9395H74.75Z" fill="#F1B986"/>
<path d="M75.2579 58.0684H79.879V48.0645C79.8723 46.5716 79.2763 45.1417 78.2206 44.0861C77.165 43.0304 75.7351 42.4344 74.2422 42.4277H70.129V52.9395C70.1256 53.6139 70.256 54.2824 70.5125 54.9062C70.7691 55.53 71.1468 56.0967 71.6237 56.5736C72.1006 57.0506 72.6674 57.4282 73.2912 57.6848C73.9149 57.9414 74.5834 58.0717 75.2579 58.0684Z" fill="#544F57"/>
<path d="M65 58.0684H50.1211V48.0645C50.1211 45.3439 51.2018 42.7348 53.1255 40.8111C55.0492 38.8874 57.6584 37.8066 60.3789 37.8066H65.5078C66.7334 37.8066 67.9088 38.2935 68.7754 39.1601C69.642 40.0268 70.1289 41.2021 70.1289 42.4277V52.9395C70.1323 53.6139 70.0019 54.2824 69.7453 54.9062C69.4888 55.53 69.1111 56.0967 68.6342 56.5736C68.1573 57.0506 67.5905 57.4282 66.9667 57.6848C66.3429 57.9414 65.6745 58.0717 65 58.0684Z" fill="#665E66"/>
<path d="M17.7988 111.693H112.201V119.895H17.7988V111.693Z" fill="#665E66"/>
<path d="M105.523 111.693H112.201V119.895H105.523V111.693Z" fill="#544F57"/>
<path d="M21.4043 119.895H108.596V128.096H21.4043V119.895Z" fill="#C19D8E"/>
<path d="M33.7188 59.2363H10.1055C9.60042 59.2363 9.11605 59.437 8.75893 59.7941C8.4018 60.1512 8.20117 60.6356 8.20117 61.1406C8.20117 61.6457 8.4018 62.13 8.75893 62.4872C9.11605 62.8443 9.60042 63.0449 10.1055 63.0449H33.7188C34.2238 63.0449 34.7082 62.8443 35.0653 62.4872C35.4224 62.13 35.623 61.6457 35.623 61.1406C35.623 60.6356 35.4224 60.1512 35.0653 59.7941C34.7082 59.437 34.2238 59.2363 33.7188 59.2363Z" fill="black"/>
<path d="M35.623 69.3672C35.623 68.8621 35.4224 68.3778 35.0653 68.0206C34.7082 67.6635 34.2238 67.4629 33.7188 67.4629H10.1055C9.60042 67.4629 9.11605 67.6635 8.75893 68.0206C8.4018 68.3778 8.20117 68.8621 8.20117 69.3672C8.20117 69.8722 8.4018 70.3566 8.75893 70.7137C9.11605 71.0708 9.60042 71.2715 10.1055 71.2715H33.7188C34.2218 71.2649 34.7023 71.0622 35.058 70.7065C35.4137 70.3507 35.6165 69.8702 35.623 69.3672Z" fill="black"/>
<path d="M10.1055 75.6641C9.60042 75.6641 9.11605 75.8647 8.75893 76.2218C8.4018 76.5789 8.20117 77.0633 8.20117 77.5684C8.20117 78.0734 8.4018 78.5578 8.75893 78.9149C9.11605 79.272 9.60042 79.4727 10.1055 79.4727H25.4922C25.9972 79.4727 26.4816 79.272 26.8387 78.9149C27.1959 78.5578 27.3965 78.0734 27.3965 77.5684C27.3965 77.0633 27.1959 76.5789 26.8387 76.2218C26.4816 75.8647 25.9972 75.6641 25.4922 75.6641H10.1055Z" fill="black"/>
<path d="M39.3555 87.6738C40.5407 87.6738 41.6773 87.203 42.5154 86.365C43.3534 85.5269 43.8242 84.3903 43.8242 83.2051V55.5039C43.8242 54.3187 43.3534 53.1821 42.5154 52.344C41.6773 51.506 40.5407 51.0352 39.3555 51.0352H17.2148C16.7098 51.0352 16.2254 51.2358 15.8683 51.5929C15.5112 51.95 15.3105 52.4344 15.3105 52.9395C15.3105 53.4445 15.5112 53.9289 15.8683 54.286C16.2254 54.6431 16.7098 54.8438 17.2148 54.8438H39.3555C39.5306 54.8438 39.6985 54.9133 39.8223 55.0371C39.9461 55.1609 40.0156 55.3288 40.0156 55.5039V83.2051C40.0156 83.3802 39.9461 83.5481 39.8223 83.6719C39.6985 83.7957 39.5306 83.8652 39.3555 83.8652H18.8398C18.5029 83.8743 18.1727 83.9612 17.875 84.1191L11.7559 87.6231V85.7695C11.7559 85.2645 11.5552 84.7801 11.1981 84.423C10.841 84.0659 10.3566 83.8652 9.85156 83.8652H4.46875C4.29367 83.8652 4.12575 83.7957 4.00195 83.6719C3.87815 83.5481 3.80859 83.3802 3.80859 83.2051V55.5039C3.80859 55.3288 3.87815 55.1609 4.00195 55.0371C4.12575 54.9133 4.29367 54.8438 4.46875 54.8438H8.27734C8.78239 54.8438 9.26676 54.6431 9.62389 54.286C9.98101 53.9289 10.1816 53.4445 10.1816 52.9395C10.1816 52.4344 9.98101 51.95 9.62389 51.5929C9.26676 51.2358 8.78239 51.0352 8.27734 51.0352H4.46875C3.28356 51.0352 2.14692 51.506 1.30887 52.344C0.470813 53.1821 0 54.3187 0 55.5039L0 83.2051C0 84.3903 0.470813 85.5269 1.30887 86.365C2.14692 87.203 3.28356 87.6738 4.46875 87.6738H7.94727V90.8985C7.94385 91.1495 7.99077 91.3986 8.08526 91.6312C8.17975 91.8638 8.3199 92.0751 8.49741 92.2526C8.67493 92.4301 8.88622 92.5703 9.1188 92.6648C9.35138 92.7592 9.60054 92.8062 9.85156 92.8027C10.1824 92.8085 10.5081 92.7205 10.791 92.5488L19.3477 87.6738H39.3555Z" fill="black"/>
<path d="M119.895 56.1641H96.2813C95.7762 56.1641 95.2918 56.3647 94.9347 56.7218C94.5776 57.0789 94.377 57.5633 94.377 58.0684C94.377 58.5734 94.5776 59.0578 94.9347 59.4149C95.2918 59.772 95.7762 59.9727 96.2813 59.9727H119.895C120.4 59.9727 120.884 59.772 121.241 59.4149C121.598 59.0578 121.799 58.5734 121.799 58.0684C121.799 57.5633 121.598 57.0789 121.241 56.7218C120.884 56.3647 120.4 56.1641 119.895 56.1641Z" fill="black"/>
<path d="M119.895 64.3906H96.2813C95.7762 64.3906 95.2918 64.5913 94.9347 64.9484C94.5776 65.3055 94.377 65.7899 94.377 66.2949C94.377 66.8 94.5776 67.2843 94.9347 67.6415C95.2918 67.9986 95.7762 68.1992 96.2813 68.1992H119.895C120.4 68.1992 120.884 67.9986 121.241 67.6415C121.598 67.2843 121.799 66.8 121.799 66.2949C121.799 65.7899 121.598 65.3055 121.241 64.9484C120.884 64.5913 120.4 64.3906 119.895 64.3906Z" fill="black"/>
<path d="M119.895 72.5918H104.508C104.003 72.5918 103.518 72.7924 103.161 73.1496C102.804 73.5067 102.604 73.991 102.604 74.4961C102.604 75.0011 102.804 75.4855 103.161 75.8426C103.518 76.1998 104.003 76.4004 104.508 76.4004H119.895C120.4 76.4004 120.884 76.1998 121.241 75.8426C121.598 75.4855 121.799 75.0011 121.799 74.4961C121.799 73.991 121.598 73.5067 121.241 73.1496C120.884 72.7924 120.4 72.5918 119.895 72.5918Z" fill="black"/>
<path d="M125.531 47.9629H103.898C103.393 47.9629 102.909 48.1635 102.552 48.5206C102.195 48.8778 101.994 49.3621 101.994 49.8672C101.994 50.3722 102.195 50.8566 102.552 51.2137C102.909 51.5709 103.393 51.7715 103.898 51.7715H125.531C125.706 51.7715 125.874 51.841 125.998 51.9648C126.122 52.0886 126.191 52.2566 126.191 52.4316V80.1328C126.191 80.3079 126.122 80.4758 125.998 80.5996C125.874 80.7234 125.706 80.793 125.531 80.793H120.148C119.643 80.793 119.159 80.9936 118.802 81.3507C118.445 81.7079 118.244 82.1922 118.244 82.6973V84.5508L112.1 81.0469C111.817 80.8752 111.491 80.7872 111.16 80.793H90.6445C90.4694 80.793 90.3015 80.7234 90.1777 80.5996C90.0539 80.4758 89.9844 80.3079 89.9844 80.1328V52.4316C89.9844 52.2566 90.0539 52.0886 90.1777 51.9648C90.3015 51.841 90.4694 51.7715 90.6445 51.7715H95.0117C95.5168 51.7715 96.0011 51.5709 96.3583 51.2137C96.7154 50.8566 96.916 50.3722 96.916 49.8672C96.916 49.3621 96.7154 48.8778 96.3583 48.5206C96.0011 48.1635 95.5168 47.9629 95.0117 47.9629H90.6445C90.0577 47.9629 89.4766 48.0785 88.9344 48.3031C88.3922 48.5276 87.8996 48.8568 87.4847 49.2718C87.0697 49.6867 86.7405 50.1794 86.5159 50.7215C86.2914 51.2637 86.1758 51.8448 86.1758 52.4316V80.1328C86.1758 81.318 86.6466 82.4546 87.4847 83.2927C88.3227 84.1307 89.4593 84.6016 90.6445 84.6016H110.652L119.209 89.4766C119.494 89.644 119.818 89.7323 120.148 89.7323C120.479 89.7323 120.803 89.644 121.088 89.4766C121.382 89.313 121.626 89.0735 121.796 88.7832C121.966 88.493 122.054 88.1624 122.053 87.8262V84.6016H125.531C126.716 84.6016 127.853 84.1307 128.691 83.2927C129.529 82.4546 130 81.318 130 80.1328V52.4316C130 51.2465 129.529 50.1098 128.691 49.2718C127.853 48.4337 126.716 47.9629 125.531 47.9629Z" fill="black"/>
<path d="M119.895 8.20117H88.5879C88.0828 8.20117 87.5985 8.4018 87.2414 8.75893C86.8842 9.11605 86.6836 9.60042 86.6836 10.1055C86.6836 10.6105 86.8842 11.0949 87.2414 11.452C87.5985 11.8091 88.0828 12.0098 88.5879 12.0098H119.895C120.4 12.0098 120.884 11.8091 121.241 11.452C121.598 11.0949 121.799 10.6105 121.799 10.1055C121.799 9.60042 121.598 9.11605 121.241 8.75893C120.884 8.4018 120.4 8.20117 119.895 8.20117Z" fill="black"/>
<path d="M119.895 16.4277H88.5879C88.0828 16.4277 87.5985 16.6284 87.2414 16.9855C86.8842 17.3426 86.6836 17.827 86.6836 18.332C86.6836 18.8371 86.8842 19.3214 87.2414 19.6786C87.5985 20.0357 88.0828 20.2363 88.5879 20.2363H119.895C120.4 20.2363 120.884 20.0357 121.241 19.6786C121.598 19.3214 121.799 18.8371 121.799 18.332C121.799 17.827 121.598 17.3426 121.241 16.9855C120.884 16.6284 120.4 16.4277 119.895 16.4277Z" fill="black"/>
<path d="M119.895 24.6289H96.8145C96.3094 24.6289 95.825 24.8295 95.4679 25.1867C95.1108 25.5438 94.9102 26.0282 94.9102 26.5332C94.9102 27.0383 95.1108 27.5226 95.4679 27.8797C95.825 28.2369 96.3094 28.4375 96.8145 28.4375H119.895C120.4 28.4375 120.884 28.2369 121.241 27.8797C121.598 27.5226 121.799 27.0383 121.799 26.5332C121.799 26.0282 121.598 25.5438 121.241 25.1867C120.884 24.8295 120.4 24.6289 119.895 24.6289Z" fill="black"/>
<path d="M125.531 0H82.9512C81.766 0 80.6293 0.470813 79.7913 1.30887C78.9532 2.14692 78.4824 3.28356 78.4824 4.46875V32.1699C78.4824 33.3551 78.9532 34.4918 79.7913 35.3298C80.6293 36.1679 81.766 36.6387 82.9512 36.6387H110.652L119.209 41.5137C119.494 41.6811 119.818 41.7694 120.148 41.7694C120.479 41.7694 120.803 41.6811 121.088 41.5137C121.382 41.3501 121.626 41.1107 121.796 40.8204C121.966 40.5301 122.054 40.1995 122.053 39.8633V36.6387H125.531C126.716 36.6387 127.853 36.1679 128.691 35.3298C129.529 34.4918 130 33.3551 130 32.1699V4.46875C130 3.28356 129.529 2.14692 128.691 1.30887C127.853 0.470813 126.716 0 125.531 0V0ZM126.191 32.1699C126.191 32.345 126.122 32.5129 125.998 32.6367C125.874 32.7605 125.706 32.8301 125.531 32.8301H120.148C119.643 32.8301 119.159 33.0307 118.802 33.3878C118.445 33.745 118.244 34.2293 118.244 34.7344V36.5879L112.1 33.084C111.817 32.9123 111.491 32.8243 111.16 32.8301H82.9512C82.7761 32.8301 82.6082 32.7605 82.4844 32.6367C82.3606 32.5129 82.291 32.345 82.291 32.1699V4.46875C82.291 4.29367 82.3606 4.12575 82.4844 4.00195C82.6082 3.87815 82.7761 3.80859 82.9512 3.80859H125.531C125.706 3.80859 125.874 3.87815 125.998 4.00195C126.122 4.12575 126.191 4.29367 126.191 4.46875V32.1699Z" fill="black"/>
<path d="M10.1055 12.0098H41.4121C41.9172 12.0098 42.4015 11.8091 42.7587 11.452C43.1158 11.0949 43.3164 10.6105 43.3164 10.1055C43.3164 9.60042 43.1158 9.11605 42.7587 8.75893C42.4015 8.4018 41.9172 8.20117 41.4121 8.20117H10.1055C9.60042 8.20117 9.11605 8.4018 8.75893 8.75893C8.4018 9.11605 8.20117 9.60042 8.20117 10.1055C8.20117 10.6105 8.4018 11.0949 8.75893 11.452C9.11605 11.8091 9.60042 12.0098 10.1055 12.0098Z" fill="black"/>
<path d="M10.1055 20.2363H41.4121C41.9172 20.2363 42.4015 20.0357 42.7587 19.6786C43.1158 19.3214 43.3164 18.8371 43.3164 18.332C43.3164 17.827 43.1158 17.3426 42.7587 16.9855C42.4015 16.6284 41.9172 16.4277 41.4121 16.4277H10.1055C9.60042 16.4277 9.11605 16.6284 8.75893 16.9855C8.4018 17.3426 8.20117 17.827 8.20117 18.332C8.20117 18.8371 8.4018 19.3214 8.75893 19.6786C9.11605 20.0357 9.60042 20.2363 10.1055 20.2363Z" fill="black"/>
<path d="M10.1055 28.4375H33.1855C33.6906 28.4375 34.175 28.2369 34.5321 27.8797C34.8892 27.5226 35.0898 27.0383 35.0898 26.5332C35.0898 26.0282 34.8892 25.5438 34.5321 25.1867C34.175 24.8295 33.6906 24.6289 33.1855 24.6289H10.1055C9.60042 24.6289 9.11605 24.8295 8.75893 25.1867C8.4018 25.5438 8.20117 26.0282 8.20117 26.5332C8.20117 27.0383 8.4018 27.5226 8.75893 27.8797C9.11605 28.2369 9.60042 28.4375 10.1055 28.4375Z" fill="black"/>
<path d="M4.46875 36.6387H7.94727V39.8633C7.94828 40.196 8.03531 40.5229 8.19992 40.812C8.36453 41.1012 8.60112 41.3429 8.88672 41.5137C9.18005 41.6825 9.5131 41.7702 9.85156 41.7676C10.1824 41.7734 10.5081 41.6853 10.791 41.5137L19.3477 36.6387H47.0488C48.234 36.6387 49.3707 36.1679 50.2087 35.3298C51.0468 34.4918 51.5176 33.3551 51.5176 32.1699V4.46875C51.5176 3.28356 51.0468 2.14692 50.2087 1.30887C49.3707 0.470813 48.234 0 47.0488 0L4.46875 0C3.28356 0 2.14692 0.470813 1.30887 1.30887C0.470813 2.14692 0 3.28356 0 4.46875L0 32.1699C0 33.3551 0.470813 34.4918 1.30887 35.3298C2.14692 36.1679 3.28356 36.6387 4.46875 36.6387ZM3.80859 4.46875C3.80859 4.38206 3.82567 4.29621 3.85885 4.21612C3.89202 4.13602 3.94065 4.06325 4.00195 4.00195C4.06325 3.94065 4.13602 3.89202 4.21612 3.85885C4.29621 3.82567 4.38206 3.80859 4.46875 3.80859H47.0488C47.1355 3.80859 47.2214 3.82567 47.3015 3.85885C47.3816 3.89202 47.4543 3.94065 47.5156 4.00195C47.5769 4.06325 47.6256 4.13602 47.6587 4.21612C47.6919 4.29621 47.709 4.38206 47.709 4.46875V32.1699C47.709 32.345 47.6394 32.5129 47.5156 32.6367C47.3918 32.7605 47.2239 32.8301 47.0488 32.8301H18.8398C18.509 32.8243 18.1833 32.9123 17.9004 33.084L11.7559 36.5879V34.7344C11.7559 34.2293 11.5552 33.745 11.1981 33.3878C10.841 33.0307 10.3566 32.8301 9.85156 32.8301H4.46875C4.29367 32.8301 4.12575 32.7605 4.00195 32.6367C3.87815 32.5129 3.80859 32.345 3.80859 32.1699V4.46875Z" fill="black"/>
<path d="M112.201 109.789H98.4648V105.625C98.4604 102.382 97.389 99.2299 95.4159 96.6557C93.4428 94.0815 90.6777 92.2279 87.5469 91.3809L73.582 87.6485V82.2402C76.0798 80.7511 78.1485 78.6395 79.5859 76.1117C81.0234 73.5838 81.7805 70.7263 81.7832 67.8184V48.0645C81.7832 46.0645 80.9887 44.1464 79.5745 42.7322C78.1603 41.3179 76.2422 40.5234 74.2422 40.5234H71.7539C71.3457 39.1854 70.5182 38.014 69.3936 37.1819C68.269 36.3499 66.9067 35.9013 65.5078 35.9023H60.3789C57.1554 35.9091 54.0658 37.1926 51.7864 39.472C49.507 41.7513 48.2235 44.8409 48.2168 48.0645V67.8184C48.2195 70.7263 48.9766 73.5838 50.4141 76.1117C51.8515 78.6395 53.9202 80.7511 56.418 82.2402V87.6485L42.4531 91.3809C39.3223 92.2279 36.5572 94.0815 34.5841 96.6557C32.611 99.2299 31.5396 102.382 31.5352 105.625V109.764H17.7988C17.2958 109.77 16.8153 109.973 16.4596 110.329C16.1039 110.684 15.9011 111.165 15.8945 111.668V119.895C15.9011 120.398 16.1039 120.878 16.4596 121.234C16.8153 121.59 17.2958 121.792 17.7988 121.799H19.5V128.096C19.5 128.601 19.7006 129.085 20.0578 129.442C20.4149 129.799 20.8992 130 21.4043 130C21.9093 130 22.3937 129.799 22.7508 129.442C23.108 129.085 23.3086 128.601 23.3086 128.096V121.799H95.0879C95.5929 121.799 96.0773 121.598 96.4344 121.241C96.7916 120.884 96.9922 120.4 96.9922 119.895C96.9922 119.39 96.7916 118.905 96.4344 118.548C96.0773 118.191 95.5929 117.99 95.0879 117.99H19.7031V113.572H110.297V117.99H104C103.495 117.99 103.011 118.191 102.653 118.548C102.296 118.905 102.096 119.39 102.096 119.895C102.096 120.4 102.296 120.884 102.653 121.241C103.011 121.598 103.495 121.799 104 121.799H106.691V128.096C106.691 128.601 106.892 129.085 107.249 129.442C107.606 129.799 108.091 130 108.596 130C109.101 130 109.585 129.799 109.942 129.442C110.299 129.085 110.5 128.601 110.5 128.096V121.799H112.201C112.704 121.792 113.185 121.59 113.54 121.234C113.896 120.878 114.099 120.398 114.105 119.895V111.668C114.099 111.165 113.896 110.684 113.54 110.329C113.185 109.973 112.704 109.77 112.201 109.764V109.789ZM60.8105 96.586L55.2754 100.801L52.8633 92.5489L56.7734 91.5078C57.4126 93.6585 58.8593 95.4784 60.8105 96.586ZM73.2266 91.5078L77.1367 92.5489L74.7246 100.801L69.1895 96.586C71.1407 95.4784 72.5874 93.6585 73.2266 91.5078ZM77.9746 48.0645V56.1641H75.2578C74.4026 56.1641 73.5824 55.8243 72.9777 55.2196C72.3729 54.6149 72.0332 53.7947 72.0332 52.9395V44.332H74.2422C75.2321 44.332 76.1814 44.7253 76.8814 45.4252C77.5814 46.1252 77.9746 47.0746 77.9746 48.0645ZM52.0254 48.0645C52.0321 45.851 52.9143 43.7302 54.4795 42.165C56.0446 40.5999 58.1655 39.7176 60.3789 39.7109H65.5078C66.2284 39.7109 66.9194 39.9972 67.4289 40.5067C67.9384 41.0162 68.2246 41.7072 68.2246 42.4277V52.9395C68.2246 53.7947 67.8849 54.6149 67.2801 55.2196C66.6754 55.8243 65.8552 56.1641 65 56.1641H52.0254V48.0645ZM52.0254 67.8184V59.9727H65C65.9625 59.9724 66.9147 59.7739 67.7971 59.3895C68.6795 59.0051 69.4733 58.443 70.1289 57.7383C70.7845 58.443 71.5783 59.0051 72.4607 59.3895C73.3431 59.7739 74.2953 59.9724 75.2578 59.9727H77.9746V67.8184C77.9746 69.5222 77.639 71.2094 76.987 72.7835C76.3349 74.3577 75.3792 75.788 74.1744 76.9928C72.9696 78.1976 71.5393 79.1533 69.9652 79.8054C68.391 80.4574 66.7038 80.793 65 80.793C63.2962 80.793 61.609 80.4574 60.0348 79.8054C58.4607 79.1533 57.0304 78.1976 55.8256 76.9928C54.6208 75.788 53.6651 74.3577 53.013 72.7835C52.361 71.2094 52.0254 69.5222 52.0254 67.8184ZM65 84.6016C66.6152 84.5945 68.2216 84.3638 69.7734 83.916V89.1211C69.7734 90.3871 69.2705 91.6013 68.3753 92.4964C67.4801 93.3916 66.266 93.8946 65 93.8946C63.734 93.8946 62.5199 93.3916 61.6247 92.4964C60.7295 91.6013 60.2266 90.3871 60.2266 89.1211V83.916C61.7784 84.3638 63.3848 84.5945 65 84.6016ZM35.3691 105.625C35.3687 103.222 36.1591 100.886 37.6184 98.9771C39.0776 97.0681 41.1246 95.6925 43.4434 95.0625L49.1816 93.5391L52.4062 104.533C52.496 104.825 52.653 105.092 52.8647 105.313C53.0764 105.533 53.3368 105.701 53.625 105.803C53.8242 105.853 54.0289 105.879 54.2344 105.879C54.6467 105.881 55.0482 105.747 55.377 105.498L65 98.1602L74.623 105.498C74.9518 105.747 75.3533 105.881 75.7656 105.879C75.9711 105.879 76.1757 105.853 76.375 105.803C76.6632 105.701 76.9236 105.533 77.1353 105.313C77.347 105.092 77.504 104.825 77.5938 104.533L80.8184 93.5391L86.5566 95.0625C88.878 95.6916 90.9282 97.0662 92.3917 98.9748C93.8552 100.883 94.6509 103.22 94.6562 105.625V109.764H84.8555V106.539C84.8555 106.034 84.6548 105.55 84.2977 105.193C83.9406 104.835 83.4562 104.635 82.9512 104.635C82.4461 104.635 81.9618 104.835 81.6046 105.193C81.2475 105.55 81.0469 106.034 81.0469 106.539V109.764H48.9531V106.539C48.9531 106.034 48.7525 105.55 48.3954 105.193C48.0382 104.835 47.5539 104.635 47.0488 104.635C46.5438 104.635 46.0594 104.835 45.7023 105.193C45.3452 105.55 45.1445 106.034 45.1445 106.539V109.764H35.3691V105.625Z" fill="black"/>
</g>
<defs>
<clipPath id="clip0">
<rect width="130" height="130" fill="white"/>
</clipPath>
</defs>
</svg>
