<svg width="130" height="131" viewBox="0 0 130 131" fill="none" xmlns="http://www.w3.org/2000/svg">
<path d="M118.608 91.3748C118.656 91.2279 118.681 91.0809 118.73 90.9095C118.778 90.7381 118.754 90.8116 118.754 90.7626L118.827 90.3708C118.827 90.3218 118.852 90.2484 118.852 90.1994C118.852 90.1505 118.876 89.9301 118.9 89.8076C118.898 89.7495 118.906 89.6915 118.925 89.6362C118.945 89.4492 118.953 89.2611 118.949 89.073V79.0581V72.6426V65.3456V36.9413C118.94 35.8313 118.716 34.7337 118.29 33.7091C117.679 32.2592 116.673 31.0116 115.387 30.1095L114.801 29.7178L109.214 26.4855L103.993 23.4492L99.7961 21.025L83.7174 11.6957L77.4469 8.07169L72.7379 5.35369L69.8101 3.66412C68.5498 2.931 67.119 2.54492 65.6623 2.54492C64.2056 2.54492 62.7748 2.931 61.5145 3.66412L58.6111 5.35369L53.9021 8.07169L47.6317 11.7202L31.5529 21.0495L24.5017 25.1388L19.2803 28.1751L16.5233 29.7667L15.9377 30.134C15.1528 30.6816 14.4677 31.3608 13.9126 32.1419C13.5425 32.6604 13.2315 33.2189 12.9855 33.807C12.5649 34.8065 12.3491 35.8808 12.3511 36.9658V72.6181V79.0336V89.073C12.3471 89.2611 12.3552 89.4492 12.3755 89.6362C12.3734 89.6944 12.3817 89.7524 12.3999 89.8076C12.4042 89.9395 12.4205 90.0706 12.4487 90.1994C12.4487 90.2484 12.4731 90.3218 12.4731 90.3708L12.5463 90.7626C12.5463 90.8116 12.5707 90.8606 12.5707 90.9095C12.6 91.0594 12.6408 91.2067 12.6927 91.3503C12.6927 91.3748 12.7171 91.3993 12.7171 91.4237C12.938 92.1656 13.2581 92.874 13.6686 93.5296C13.9527 93.9767 14.2796 94.395 14.6446 94.7784C14.6446 94.8029 14.669 94.8029 14.669 94.8274L15.2058 95.3416L15.3034 95.415L15.8889 95.8803L16.4745 96.2721L21.9886 99.4553L27.2099 102.492L31.5041 104.965L53.8777 117.918L58.5867 120.636L61.5145 122.326C62.7748 123.059 64.2056 123.445 65.6623 123.445C67.119 123.445 68.5498 123.059 69.8101 122.326L72.7135 120.636L77.4225 117.918L83.693 114.27L97.2586 106.409L99.7961 104.94L106.237 101.218L111.459 98.182L114.826 96.2231L115.411 95.8558C115.621 95.7205 115.817 95.5646 115.997 95.3906L116.094 95.3171L116.631 94.8029H116.656C117.566 93.8495 118.236 92.6907 118.608 91.4237V91.3748Z" fill="white"/>
<path d="M118.95 79.146V72.8156V71.8008V65.6154L118.926 53.8244V47.494V46.745H12.3501V47.494V53.8244L12.3745 71.6317V72.5981V72.8156V79.146V79.6051V79.895H98.4595H108.51H118.95V79.146Z" fill="#164FCE"/>
<path d="M98.4589 79.9194H12.3511V89.1729C12.3471 89.3604 12.3552 89.548 12.3755 89.7344C12.3734 89.7924 12.3817 89.8503 12.3999 89.9054C12.4042 90.0368 12.4205 90.1676 12.4487 90.296C12.4487 90.3448 12.4731 90.4181 12.4731 90.4669L12.5463 90.8576C12.5463 90.9064 12.5706 90.9552 12.5706 91.004C12.5999 91.1535 12.6407 91.3004 12.6926 91.4435C12.6926 91.4679 12.717 91.4924 12.717 91.5168C12.9379 92.2565 13.2579 92.9628 13.6683 93.6165C13.9524 94.0623 14.2791 94.4794 14.6441 94.8617C14.6441 94.8861 14.6685 94.8861 14.6685 94.9105L15.2051 95.4232L15.3027 95.4965L15.8881 95.9604L16.4735 96.351L21.9864 99.525L27.2065 102.553L31.4997 105.019L53.8682 117.934L58.5761 120.644L61.5033 122.329C62.7633 123.06 64.1938 123.445 65.6501 123.445C67.1064 123.445 68.5369 123.06 69.7969 122.329L72.6997 120.644L77.4076 117.934L83.6766 114.296L97.2392 106.459L99.7761 104.994L106.216 101.283L111.436 98.2554L114.802 96.3022L115.388 95.936C115.598 95.8011 115.794 95.6457 115.973 95.4721L116.071 95.3988L116.607 94.8861H116.632C117.542 93.9355 118.211 92.78 118.583 91.5168C118.583 91.4924 118.608 91.4679 118.608 91.4435C118.608 91.4191 118.681 91.1505 118.73 90.9796C118.778 90.8087 118.754 90.882 118.754 90.8331L118.827 90.4425C118.827 90.3937 118.852 90.3204 118.852 90.2716C118.852 90.2228 118.876 90.003 118.9 89.8809C118.898 89.823 118.906 89.7651 118.925 89.71C118.945 89.5236 118.953 89.336 118.949 89.1485V79.895H98.4589V79.9194Z" fill="#ED1F34"/>
<path d="M25.3501 37.645V66.8348C25.3501 78.3641 35.1444 85.057 43.8751 87.695C52.6058 85.0325 62.4001 78.3641 62.4001 66.8348V37.645H25.3501Z" fill="#ED1F34"/>
<path d="M50.7641 57.3679H45.7606V52.6357H48.0989C48.5991 52.6357 49.0787 52.4389 49.4323 52.0886C49.786 51.7383 49.9847 51.2631 49.9847 50.7677C49.9847 50.2723 49.786 49.7972 49.4323 49.4468C49.0787 49.0965 48.5991 48.8997 48.0989 48.8997H45.7606V45.363C45.7606 44.8676 45.5619 44.3924 45.2083 44.0421C44.8546 43.6918 44.375 43.495 43.8749 43.495C43.3747 43.495 42.8951 43.6918 42.5414 44.0421C42.1878 44.3924 41.9891 44.8676 41.9891 45.363V48.8997H39.6508C39.1507 48.8997 38.671 49.0965 38.3174 49.4468C37.9637 49.7972 37.765 50.2723 37.765 50.7677C37.765 51.2631 37.9637 51.7383 38.3174 52.0886C38.671 52.4389 39.1507 52.6357 39.6508 52.6357H41.9891V57.3679H36.9856C36.4855 57.3679 36.0058 57.5647 35.6522 57.9151C35.2985 58.2654 35.0999 58.7405 35.0999 59.2359C35.0999 59.7313 35.2985 60.2065 35.6522 60.5568C36.0058 60.9071 36.4855 61.1039 36.9856 61.1039H41.9891V68.277C41.9891 68.7724 42.1878 69.2476 42.5414 69.5979C42.8951 69.9482 43.3747 70.145 43.8749 70.145C44.375 70.145 44.8546 69.9482 45.2083 69.5979C45.5619 69.2476 45.7606 68.7724 45.7606 68.277V61.1039H50.7641C51.2642 61.1039 51.7439 60.9071 52.0975 60.5568C52.4512 60.2065 52.6499 59.7313 52.6499 59.2359C52.6499 58.7405 52.4512 58.2654 52.0975 57.9151C51.7439 57.5647 51.2642 57.3679 50.7641 57.3679Z" fill="white"/>
<path d="M43.8749 68.1949C41.6832 68.1938 39.5272 68.7401 37.6091 69.7824C35.691 70.8247 34.0738 72.3289 32.9091 74.154C31.6513 73.676 30.3148 73.4297 28.9663 73.4272C28.188 73.4333 27.4121 73.5145 26.6499 73.6695C29.5331 81.0819 37.0243 85.6117 43.8749 87.6949C50.7008 85.6117 58.1921 81.0819 61.0999 73.6695C60.3396 73.5027 59.5625 73.4214 58.7835 73.4272C57.4352 73.4318 56.0991 73.6781 54.8407 74.154C53.6743 72.3305 52.0567 70.8275 50.139 69.7854C48.2213 68.7433 46.0661 68.1961 43.8749 68.1949Z" fill="#164FCE"/>
<path d="M121.525 39.1709C121.524 38.252 121.4 37.3374 121.157 36.451C121.027 35.9853 120.871 35.5271 120.69 35.0788C119.913 33.2391 118.626 31.6582 116.981 30.5212L116.219 30.0312L70.9194 3.95981C69.3098 3.0329 67.484 2.54492 65.6254 2.54492C63.7669 2.54492 61.941 3.0329 60.3315 3.95981L15.0317 30.0557L14.2947 30.5212C13.289 31.2099 12.4153 32.073 11.7153 33.0696C11.246 33.7355 10.8507 34.4503 10.5361 35.2013C10.0187 36.4698 9.75178 37.826 9.75 39.1954V91.3626C9.75 91.5831 9.75 91.8282 9.77457 92.0732C9.77061 92.1314 9.77898 92.1899 9.79913 92.2447C9.8237 92.4162 9.8237 92.5878 9.84826 92.7593C9.87283 92.9308 9.87283 92.8818 9.87283 92.9798C9.89367 93.1534 9.92651 93.3253 9.97109 93.4944C9.9842 93.5524 10.0006 93.6097 10.0202 93.6659L10.1676 94.2295V94.3275C10.4446 95.2726 10.8584 96.1724 11.3959 96.9983C11.7644 97.5659 12.1837 98.099 12.6488 98.591L12.6979 98.64L13.3858 99.3016L13.5086 99.3996L14.2701 99.9877L15.0317 100.478L60.356 126.574C61.9627 127.497 63.7832 127.987 65.6377 127.995C67.4943 128.003 69.3187 127.512 70.9194 126.574L116.244 100.478L116.981 100.012L117.742 99.4241L117.865 99.3261C118.106 99.1182 118.336 98.8974 118.553 98.6645L118.602 98.6155C119.754 97.4188 120.605 95.9658 121.083 94.3765L121.132 94.254L121.28 93.6904C121.304 93.6169 121.304 93.5679 121.329 93.4944C121.353 93.4209 121.403 93.1513 121.427 92.9798C121.427 92.9063 121.452 92.8573 121.452 92.7838C121.48 92.6136 121.497 92.4417 121.501 92.2692C121.497 92.211 121.505 92.1525 121.525 92.0977C121.55 91.8282 121.55 91.6076 121.55 91.3871L121.525 39.1709ZM14.6632 36.8676C14.8385 36.4312 15.0697 36.0194 15.3511 35.6424C15.7677 35.0678 16.2735 34.5633 16.8496 34.1477L17.2672 33.8782L62.567 7.7823C63.4989 7.23981 64.5587 6.95395 65.6377 6.95395C66.7168 6.95395 67.7765 7.23981 68.7085 7.7823L114.008 33.8537L114.45 34.1232C115.407 34.7842 116.156 35.7016 116.612 36.7695C116.724 37.0313 116.815 37.3017 116.882 37.5782C117.028 38.0882 117.103 38.616 117.104 39.1464V46.2278H64.3849V40.151C64.3849 39.5661 64.1519 39.0052 63.7373 38.5916C63.3227 38.178 62.7603 37.9457 62.1739 37.9457H25.374C24.7876 37.9457 24.2253 38.178 23.8106 38.5916C23.396 39.0052 23.1631 39.5661 23.1631 40.151V46.2278H14.1965V39.1709C14.1924 38.3793 14.3512 37.5954 14.6632 36.8676ZM59.9384 42.3808V69.4323C59.9767 73.2195 58.6911 76.9018 56.3026 79.8461C54.9164 81.5621 53.2762 83.0576 51.4386 84.2812C49.0519 85.8688 46.4668 87.1374 43.7494 88.0547C41.0277 87.1479 38.4412 85.8786 36.0602 84.2812C34.2277 83.0512 32.5884 81.5565 31.1961 79.8461C28.8077 76.9018 27.5221 73.2195 27.5604 69.4323V42.3563L59.9384 42.3808ZM25.9144 79.8461H14.1965V50.6628H23.1385V69.4323C23.1284 73.0868 24.086 76.6791 25.9144 79.8461ZM117.079 91.7546V91.8772C117.079 91.9752 117.054 92.0732 117.054 92.1712V92.2937C117.03 92.3917 117.03 92.4897 117.005 92.5878V92.6858C116.984 92.8031 116.951 92.918 116.907 93.0288V93.0778C116.631 94.0074 116.134 94.8565 115.458 95.5526H115.433L115.04 95.9202L114.966 95.9692L114.524 96.3122L114.107 96.5818L68.7085 122.751C67.7765 123.294 66.7168 123.58 65.6377 123.58C64.5587 123.58 63.4989 123.294 62.567 122.751L17.2672 96.6798L16.825 96.4102L16.3828 96.0672L16.3091 96.0182L15.9161 95.6507L15.8669 95.6016C15.5956 95.3275 15.3565 95.0234 15.1545 94.695C14.848 94.2151 14.6083 93.6957 14.4421 93.1513V93.0778L14.3684 92.7348V92.6368C14.3401 92.5411 14.3236 92.4424 14.3193 92.3427V92.2202C14.299 92.1236 14.2908 92.0248 14.2947 91.9262V91.8036C14.2947 91.6566 14.2701 91.5341 14.2701 91.3871V84.3057H29.3046L29.8204 84.8447C33.2351 88.2017 37.9764 90.9215 43.1598 92.5142C43.5923 92.6451 44.0539 92.6451 44.4864 92.5142C49.6944 90.9215 54.4356 88.2017 57.8257 84.8447L58.3416 84.3057H98.679C99.2654 84.3057 99.8278 84.0733 100.242 83.6598C100.657 83.2462 100.89 82.6853 100.89 82.1004C100.89 81.5155 100.657 80.9546 100.242 80.541C99.8278 80.1275 99.2654 79.8951 98.679 79.8951H61.6089C63.4298 76.7262 64.379 73.1337 64.3603 69.4813V50.7118H117.054V79.8951H108.776C108.189 79.8951 107.627 80.1275 107.212 80.541C106.798 80.9546 106.565 81.5155 106.565 82.1004C106.565 82.6853 106.798 83.2462 107.212 83.6598C107.627 84.0733 108.189 84.3057 108.776 84.3057H117.054V91.3626C117.075 91.4922 117.083 91.6235 117.079 91.7546Z" fill="black"/>
</svg>
