<svg width="130" height="130" viewBox="0 0 130 130" fill="none" xmlns="http://www.w3.org/2000/svg">
<g clip-path="url(#clip0)">
<path d="M96.2305 127.943L99.9375 114.055L113.852 117.762L82.291 63.1211L64.6699 73.3027L96.2305 127.943Z" fill="#C19D8E"/>
<path d="M33.7695 127.943L30.0625 114.055L16.1484 117.762L47.709 63.1211L65.3301 73.3027L33.7695 127.943Z" fill="#C19D8E"/>
<path d="M65 73.125L65.3301 73.3027L65 73.8613L79.4727 98.9219H89.0957L96.9922 89.0195L97.1953 88.918L82.291 63.1211L65 73.125Z" fill="#665E66"/>
<path d="M64.6699 73.3027L65 73.125L47.709 63.1211L32.8047 88.918L33.0078 89.0195L40.9043 98.9219H50.5273L65 73.8613L64.6699 73.3027Z" fill="#665E66"/>
<path d="M65 2.38672L74.5723 6.98242H85.1855L91.7871 15.2852L101.359 19.9062L103.721 30.2402L110.322 38.543L107.961 48.877L110.322 59.2363L103.721 67.5391L101.359 77.8731L91.7871 82.4941L85.1855 90.7715H74.5723L65 95.3926L55.4277 90.7715H44.8145L38.2129 82.4941L28.6406 77.8731L26.2793 67.5391L19.6777 59.2363L22.0391 48.877L19.6777 38.543L26.2793 30.2402L28.6406 19.9062L38.2129 15.2852L44.8145 6.98242H55.4277L65 2.38672Z" fill="#FFDB66"/>
<path d="M65 87.5469C86.3568 87.5469 103.67 70.2338 103.67 48.877C103.67 27.5201 86.3568 10.207 65 10.207C43.6432 10.207 26.3301 27.5201 26.3301 48.877C26.3301 70.2338 43.6432 87.5469 65 87.5469Z" fill="#F7C14D"/>
<path d="M65 83.4844C84.1132 83.4844 99.6074 67.9901 99.6074 48.877C99.6074 29.7638 84.1132 14.2695 65 14.2695C45.8868 14.2695 30.3926 29.7638 30.3926 48.877C30.3926 67.9901 45.8868 83.4844 65 83.4844Z" fill="#FFDB66"/>
<path d="M40.5742 38.7207V46.8457L65 75.334L89.4258 46.8457V38.7207H40.5742Z" fill="#164FCE"/>
<path d="M40.5742 38.7207V46.8457L65 75.334V38.7207H40.5742Z" fill="#164FCE"/>
<path d="M52.7871 38.7207V46.8457L65 75.334L77.2129 46.8457V38.7207H52.7871Z" fill="#164FCE"/>
<path d="M89.4258 38.7207L83.3066 30.5703H46.6934L40.5742 38.7207H89.4258Z" fill="#164FCE"/>
<path d="M65 38.7207V30.5703H46.6934L40.5742 38.7207H65Z" fill="#164FCE"/>
<path d="M77.2129 38.7207L71.0938 30.5703H58.9063L52.7871 38.7207H77.2129Z" fill="#164FCE"/>
<path d="M52.7871 38.7207H40.5742V46.8609H52.7871V38.7207Z" fill="#164FCE"/>
<path d="M77.2129 38.7207H52.7871V46.8609H77.2129V38.7207Z" fill="#164FCE"/>
<path d="M89.4258 38.7207H77.2129V46.8609H89.4258V38.7207Z" fill="#164FCE"/>
<path d="M10.0547 57.0273C10.0547 64.8984 13.6855 71.2715 18.1797 71.2715C13.6855 71.2715 10.0547 77.6445 10.0547 85.5156C10.0547 77.6445 6.39844 71.2715 1.9043 71.2715C6.39844 71.2715 10.0547 64.8984 10.0547 57.0273Z" fill="#F9CE70"/>
<path d="M121.977 91.6348C121.977 96.1289 124.719 99.7598 128.096 99.7598C124.719 99.7598 121.977 103.416 121.977 107.91C121.977 103.416 119.26 99.7598 115.883 99.7598C119.26 99.7598 121.977 96.1289 121.977 91.6348Z" fill="#F9CE70"/>
<path d="M109.764 2.08203C109.764 6.57617 112.506 10.207 115.883 10.207C112.506 10.207 109.764 13.8633 109.764 18.3574C109.764 13.8633 107.047 10.207 103.67 10.207C107.047 10.207 109.764 6.57617 109.764 2.08203Z" fill="#F9CE70"/>
<path d="M115.502 116.822L95.7988 82.6719L102.172 79.5996C102.432 79.4764 102.661 79.2959 102.841 79.0717C103.021 78.8474 103.149 78.5851 103.213 78.3047L105.473 68.3769L111.82 60.4297C111.998 60.2029 112.125 59.9399 112.19 59.6593C112.256 59.3786 112.26 59.0869 112.201 58.8047L109.941 48.8769L112.201 38.9746C112.262 38.6924 112.259 38.4004 112.193 38.1194C112.127 37.8385 112 37.5756 111.82 37.3496L105.473 29.4023L103.213 19.4746C103.149 19.1941 103.021 18.9319 102.841 18.7076C102.661 18.4833 102.432 18.3028 102.172 18.1797L93.0059 13.7617L86.6582 5.81445C86.4835 5.58935 86.2605 5.40634 86.0056 5.2789C85.7507 5.15146 85.4705 5.08285 85.1856 5.07812H75.0039L65.8379 0.660153C65.5765 0.534174 65.2901 0.46875 65 0.46875C64.7099 0.46875 64.4235 0.534174 64.1621 0.660153L54.9961 5.07812H44.8145C44.5295 5.08285 44.2493 5.15146 43.9944 5.2789C43.7396 5.40634 43.5165 5.58935 43.3418 5.81445L36.9942 13.7617L27.8281 18.1797C27.5658 18.2996 27.3351 18.4792 27.1544 18.704C26.9737 18.9288 26.8479 19.1926 26.7871 19.4746L24.5274 29.4023L18.1797 37.3496C18.0002 37.5756 17.873 37.8385 17.8072 38.1194C17.7413 38.4004 17.7385 38.6924 17.7988 38.9746L20.0586 48.8769L17.7988 58.8047C17.7402 59.0869 17.7439 59.3786 17.8097 59.6593C17.8755 59.9399 18.0018 60.2029 18.1797 60.4297L24.5274 68.3769L26.7871 78.3047C26.8515 78.5851 26.9787 78.8474 27.159 79.0717C27.3393 79.2959 27.5681 79.4764 27.8281 79.5996L34.2012 82.6719L14.4981 116.822C14.3199 117.151 14.2412 117.524 14.2713 117.897C14.3014 118.27 14.4392 118.626 14.6678 118.921C14.8964 119.217 15.206 119.44 15.559 119.564C15.912 119.687 16.2932 119.705 16.6563 119.615L28.7168 116.391L31.9414 128.451C32.0465 128.811 32.254 129.132 32.5386 129.376C32.8232 129.62 33.1726 129.775 33.5442 129.824C33.9157 129.872 34.2934 129.811 34.631 129.649C34.9686 129.486 35.2515 129.229 35.4453 128.908L56.0371 93.1836L64.1621 97.0937C64.4235 97.2197 64.7099 97.2851 65 97.2851C65.2901 97.2851 65.5765 97.2197 65.8379 97.0937L73.9629 93.1836L94.5801 128.908C95.3926 130.355 97.627 130.051 98.0586 128.451L101.283 116.391L113.344 119.615C113.707 119.705 114.088 119.687 114.441 119.564C114.794 119.44 115.104 119.217 115.332 118.921C115.561 118.626 115.699 118.27 115.729 117.897C115.759 117.524 115.68 117.151 115.502 116.822ZM34.4297 122.992L31.8906 113.547C31.7539 113.062 31.4331 112.65 30.9966 112.398C30.5602 112.147 30.0427 112.076 29.5547 112.201L20.1094 114.74L37.4766 84.6269L43.3418 91.9648C43.5178 92.1867 43.7417 92.3658 43.9967 92.4889C44.2518 92.612 44.5313 92.6759 44.8145 92.6758H51.9238L34.4297 122.992ZM73.7344 89.0703L65 93.2598L56.2656 89.0703C56.0062 88.9377 55.7191 88.8681 55.4277 88.8672H45.7539L39.711 81.3008C39.5293 81.0698 39.294 80.8868 39.0254 80.7676L30.291 76.5527L28.1328 67.1074C28.0779 66.8284 27.9559 66.567 27.7774 66.3457L21.7344 58.7539L23.8926 49.3086C23.9437 49.0316 23.9437 48.7477 23.8926 48.4707L21.7344 39L27.7774 31.4336C27.9559 31.2123 28.0779 30.9509 28.1328 30.6719L30.291 21.2266L39.0254 17.0117C39.294 16.8925 39.5293 16.7095 39.711 16.4785L45.7539 8.9121H55.4277C55.7191 8.9112 56.0062 8.84161 56.2656 8.70898L65 4.49414L73.7344 8.70898C73.9957 8.83374 74.2829 8.89466 74.5723 8.88671H84.2461L90.2891 16.4785C90.4707 16.7095 90.7061 16.8925 90.9746 17.0117L99.709 21.2266L101.867 30.6719C101.922 30.9509 102.044 31.2123 102.223 31.4336L108.266 39L106.107 48.4707C106.057 48.7477 106.057 49.0316 106.107 49.3086L108.266 58.7539L102.223 66.3457C102.044 66.567 101.922 66.8284 101.867 67.1074L99.709 76.5527L90.9746 80.7676C90.7061 80.8868 90.4707 81.0698 90.2891 81.3008L84.2461 88.8672H74.5723C74.2809 88.8681 73.9938 88.9377 73.7344 89.0703ZM100.445 112.201C100.204 112.136 99.9513 112.119 99.703 112.151C99.4547 112.184 99.2152 112.265 98.9983 112.39C98.7813 112.515 98.5911 112.681 98.4386 112.88C98.286 113.078 98.1742 113.305 98.1094 113.547L95.5703 122.992L78.0762 92.6758H85.1856C85.4687 92.6759 85.7483 92.612 86.0033 92.4889C86.2583 92.3658 86.4822 92.1867 86.6582 91.9648L92.5235 84.6269L109.891 114.74L100.445 112.201Z" fill="black"/>
<path d="M101.512 48.877C101.525 43.9746 100.544 39.1205 98.6285 34.6079C96.7126 30.0954 93.9015 26.0183 90.3652 22.6231C90.187 22.4409 89.974 22.2963 89.7389 22.198C89.5038 22.0996 89.2513 22.0495 88.9965 22.0505C88.7416 22.0515 88.4896 22.1037 88.2553 22.2039C88.0209 22.3041 87.8091 22.4503 87.6323 22.6339C87.4555 22.8175 87.3174 23.0346 87.2261 23.2726C87.1348 23.5105 87.0922 23.7644 87.1008 24.0191C87.1094 24.2738 87.1691 24.5242 87.2762 24.7554C87.3834 24.9866 87.5358 25.194 87.7246 25.3652C90.8907 28.4063 93.4073 32.0578 95.1224 36.0989C96.8375 40.14 97.7154 44.487 97.7031 48.877C97.7031 66.9043 83.0273 81.5801 65 81.5801C46.9727 81.5801 32.2969 66.9043 32.2969 48.877C32.2969 30.8496 46.9727 16.1992 65 16.1992C70.3656 16.1966 75.6496 17.5133 80.3867 20.0332C80.6082 20.1529 80.8511 20.2275 81.1016 20.2527C81.352 20.2778 81.605 20.2531 81.8458 20.1799C82.0867 20.1067 82.3106 19.9865 82.5047 19.8262C82.6988 19.6659 82.8592 19.4688 82.9766 19.2461C83.0957 19.0266 83.1699 18.7855 83.1947 18.537C83.2196 18.2884 83.1946 18.0374 83.1213 17.7986C83.0481 17.5599 82.9279 17.3381 82.7679 17.1463C82.6079 16.9545 82.4112 16.7966 82.1895 16.6817C76.8996 13.8598 70.9955 12.3859 65 12.3906C44.8652 12.3906 28.4883 28.7676 28.4883 48.877C28.4883 68.9864 44.8652 85.3887 65 85.3887C85.1348 85.3887 101.512 69.0117 101.512 48.877Z" fill="black"/>
<path d="M46.6933 28.666C46.3941 28.666 46.0988 28.7346 45.8303 28.8667C45.5618 28.9988 45.3271 29.1907 45.1445 29.4277L39.0507 37.5527C38.7982 37.8893 38.6643 38.3 38.6699 38.7207V46.8457C38.6612 47.303 38.8243 47.7469 39.1269 48.0898L63.5527 76.5781C63.7338 76.7877 63.958 76.9559 64.2099 77.0711C64.4618 77.1863 64.7356 77.246 65.0127 77.246C65.2897 77.246 65.5635 77.1863 65.8154 77.0711C66.0673 76.9559 66.2915 76.7877 66.4726 76.5781L90.873 48.0898C91.1756 47.7469 91.3387 47.303 91.3301 46.8457V38.7207C91.3319 38.3006 91.1983 37.891 90.9492 37.5527L84.8554 29.4277C84.6728 29.1907 84.4382 28.9988 84.1696 28.8667C83.9011 28.7346 83.6059 28.666 83.3066 28.666H46.6933ZM70.1543 32.4746L73.4043 36.791H56.5957L59.8457 32.4746H70.1543ZM75.3086 44.9414H54.6914V40.625H75.3086V44.9414ZM74.3183 48.75L65 70.5098L55.6816 48.75H74.3183ZM50.8828 44.9414H42.4785V40.625H50.8828V44.9414ZM51.5429 48.75L58.3476 64.6445L44.7382 48.75H51.5429ZM78.457 48.75H85.2617L71.6523 64.6445L78.457 48.75ZM87.5215 44.9414H79.1172V40.625H87.5215V44.9414ZM47.6328 32.4746H55.0722L51.8222 36.791H44.3828L47.6328 32.4746ZM85.6172 36.791H78.1777L74.9277 32.4746H82.3672L85.6172 36.791Z" fill="black"/>
<path d="M18.1797 73.1758C18.6847 73.1758 19.1691 72.9751 19.5262 72.618C19.8834 72.2609 20.084 71.7765 20.084 71.2715C20.084 70.7664 19.8834 70.2821 19.5262 69.9249C19.1691 69.5678 18.6847 69.3672 18.1797 69.3672C15.2344 69.3672 11.959 64.2891 11.959 57.0273C11.959 56.5223 11.7584 56.0379 11.4012 55.6808C11.0441 55.3237 10.5597 55.123 10.0547 55.123C9.54964 55.123 9.06527 55.3237 8.70815 55.6808C8.35102 56.0379 8.15039 56.5223 8.15039 57.0273C8.15039 64.2891 4.84961 69.3672 1.9043 69.3672C1.39925 69.3672 0.914881 69.5678 0.557756 69.9249C0.200631 70.2821 0 70.7664 0 71.2715C0 71.7765 0.200631 72.2609 0.557756 72.618C0.914881 72.9751 1.39925 73.1758 1.9043 73.1758C4.84961 73.1758 8.15039 78.2539 8.15039 85.5156C8.15039 86.0207 8.35102 86.505 8.70815 86.8622C9.06527 87.2193 9.54964 87.4199 10.0547 87.4199C10.5597 87.4199 11.0441 87.2193 11.4012 86.8622C11.7584 86.505 11.959 86.0207 11.959 85.5156C11.959 78.2539 15.2344 73.1758 18.1797 73.1758ZM10.0547 75.9434C9.16602 74.0137 8.04883 72.4141 6.72852 71.2715C8.04883 70.1289 9.16602 68.5547 10.0547 66.625C10.8124 68.3972 11.9475 69.9829 13.3809 71.2715C11.9469 72.5695 10.812 74.1636 10.0547 75.9434Z" fill="black"/>
<path d="M128.096 97.8555C125.811 97.8555 123.906 95.0118 123.906 91.6348C123.937 91.3645 123.911 91.0907 123.829 90.8314C123.747 90.572 123.611 90.3329 123.43 90.1298C123.249 89.9267 123.027 89.7642 122.779 89.6529C122.53 89.5417 122.261 89.4841 121.989 89.4841C121.717 89.4841 121.448 89.5417 121.2 89.6529C120.952 89.7642 120.73 89.9267 120.549 90.1298C120.368 90.3329 120.232 90.572 120.15 90.8314C120.067 91.0907 120.041 91.3645 120.072 91.6348C120.072 95.0118 118.168 97.8555 115.883 97.8555C115.378 97.8555 114.893 98.0561 114.536 98.4133C114.179 98.7704 113.979 99.2548 113.979 99.7598C113.979 100.265 114.179 100.749 114.536 101.106C114.893 101.463 115.378 101.664 115.883 101.664C118.168 101.664 120.072 104.533 120.072 107.91C120.126 108.381 120.352 108.815 120.705 109.13C121.059 109.445 121.516 109.619 121.989 109.619C122.463 109.619 122.92 109.445 123.273 109.13C123.627 108.815 123.852 108.381 123.906 107.91C123.906 104.533 125.811 101.664 128.096 101.664C128.601 101.664 129.085 101.463 129.442 101.106C129.799 100.749 130 100.265 130 99.7598C130 99.2548 129.799 98.7704 129.442 98.4133C129.085 98.0561 128.601 97.8555 128.096 97.8555ZM121.977 101.41C121.573 100.81 121.105 100.257 120.58 99.7598C121.111 99.2777 121.58 98.7319 121.977 98.1348C122.382 98.7326 122.86 99.2783 123.398 99.7598C122.865 100.256 122.389 100.81 121.977 101.41Z" fill="black"/>
<path d="M103.67 12.1367C105.955 12.1367 107.859 14.9804 107.859 18.3574C107.914 18.8278 108.139 19.2618 108.492 19.5769C108.846 19.892 109.303 20.0661 109.776 20.0661C110.25 20.0661 110.707 19.892 111.06 19.5769C111.414 19.2618 111.639 18.8278 111.693 18.3574C111.693 14.9804 113.598 12.1367 115.883 12.1367C116.353 12.0825 116.787 11.8572 117.102 11.5037C117.417 11.1502 117.592 10.6932 117.592 10.2197C117.592 9.74617 117.417 9.28918 117.102 8.9357C116.787 8.58222 116.353 8.35692 115.883 8.3027C113.598 8.3027 111.693 5.45895 111.693 2.08199C111.639 1.61159 111.414 1.17754 111.06 0.86247C110.707 0.547397 110.25 0.373291 109.776 0.373291C109.303 0.373291 108.846 0.547397 108.492 0.86247C108.139 1.17754 107.914 1.61159 107.859 2.08199C107.859 5.45895 105.955 8.3027 103.67 8.3027C103.199 8.35692 102.765 8.58222 102.45 8.9357C102.135 9.28918 101.961 9.74617 101.961 10.2197C101.961 10.6932 102.135 11.1502 102.45 11.5037C102.765 11.8572 103.199 12.0825 103.67 12.1367ZM109.764 8.58199C110.177 9.17399 110.654 9.71892 111.186 10.207C110.659 10.7099 110.183 11.2626 109.764 11.8574C109.36 11.2574 108.892 10.7039 108.367 10.207C108.898 9.72487 109.367 9.17907 109.764 8.58199Z" fill="black"/>
</g>
<defs>
<clipPath id="clip0">
<rect width="130" height="130" fill="white"/>
</clipPath>
</defs>
</svg>
