<svg width="29" height="28" viewBox="0 0 29 28" fill="none" xmlns="http://www.w3.org/2000/svg">
<path d="M16.7026 18.0577C14.8578 17.3227 13.1921 16.2074 11.8163 14.7859C11.0715 13.9218 10.4435 12.9654 9.94806 11.9408L9.30135 10.5182C9.26051 10.2862 9.27853 10.0477 9.35378 9.82428C9.42903 9.60082 9.55916 9.39935 9.73249 9.23796C9.98332 8.8854 10.3331 8.61338 10.7385 8.45556C10.8749 8.39532 11.0281 8.38365 11.1722 8.42255C11.3163 8.46145 11.4423 8.5485 11.5289 8.66894L12.7505 10.376C12.8656 10.5578 12.9074 10.7758 12.8675 10.9867C12.8275 11.1976 12.7088 11.3859 12.5349 11.514L12.2475 11.7274L12.0319 11.9408C11.9983 12.0196 11.981 12.1042 11.981 12.1897C11.981 12.2753 11.9983 12.3599 12.0319 12.4387C12.2329 13.0683 12.5677 13.6479 13.0139 14.1387C13.4601 14.6294 14.0073 15.0199 14.6188 15.2838C14.8298 15.4277 15.0811 15.5024 15.3373 15.4972C15.6966 15.426 15.8403 14.9993 16.1278 14.7148C16.2633 14.6165 16.4269 14.5635 16.5948 14.5635C16.7628 14.5635 16.9264 14.6165 17.0619 14.7148L17.9242 15.2838L18.7865 15.9239C18.853 15.9609 18.9114 16.0105 18.9583 16.07C19.0052 16.1295 19.0397 16.1976 19.0598 16.2704C19.0798 16.3433 19.0851 16.4193 19.0752 16.4941C19.0652 16.569 19.0404 16.6411 19.002 16.7063C18.7593 17.2795 18.3291 17.7554 17.7805 18.0577L17.2775 18.2L16.7026 18.0577Z" fill="white"/>
<path d="M20.1031 13.3H20.0277C19.8015 13.3 19.7261 13.0902 19.7261 12.8804V12.2509C19.7066 11.7365 19.5781 11.2306 19.3477 10.7623C19.1173 10.294 18.7897 9.87245 18.3836 9.52168C17.9774 9.17092 17.5007 8.89786 16.9808 8.71813C16.4608 8.53839 15.9077 8.45551 15.3531 8.47421H14.6746C14.4484 8.54414 14.2222 8.40427 14.2222 8.26439C14.1932 8.21905 14.1787 8.16703 14.1802 8.11435C14.1817 8.06166 14.1992 8.01044 14.2307 7.96658C14.2622 7.92273 14.3065 7.88803 14.3583 7.86647C14.4102 7.84492 14.4675 7.83739 14.5238 7.84475L15.2777 7.70487C15.9375 7.67676 16.5967 7.77076 17.2168 7.98139C17.837 8.19202 18.4058 8.51506 18.89 8.93169C19.3743 9.34831 19.7642 9.85019 20.0372 10.408C20.3102 10.9659 20.4607 11.5686 20.4801 12.181V12.8804C20.4047 13.1601 20.2539 13.3 20.1031 13.3Z" fill="white"/>
<path d="M18.73 13.297H18.66C18.6078 13.305 18.5545 13.2968 18.5064 13.2733C18.4582 13.2498 18.4172 13.212 18.3879 13.1642C18.3586 13.1164 18.3424 13.0605 18.341 13.0031C18.3396 12.9456 18.3531 12.8889 18.38 12.8395C18.3437 12.0237 18.0157 11.2558 17.4663 10.7C16.9168 10.1442 16.1895 9.84476 15.44 9.86564H15.3C15.09 9.94189 14.95 9.78939 14.88 9.56063C14.8905 9.46581 14.9214 9.37502 14.97 9.29556C15.0186 9.21609 15.0837 9.15017 15.16 9.10311H15.37C15.8389 9.08269 16.3069 9.16317 16.7472 9.33996C17.1876 9.51674 17.5916 9.78636 17.9362 10.1334C18.2807 10.4804 18.5591 10.8981 18.7554 11.3624C18.9517 11.8267 19.062 12.3287 19.08 12.8395V13.0683C19.0402 13.1316 18.9883 13.1847 18.9279 13.2242C18.8675 13.2637 18.8 13.2885 18.73 13.297Z" fill="white"/>
<path d="M17.28 12.5999C17.1864 12.6014 17.0951 12.5768 17.0221 12.5303C16.949 12.4838 16.8987 12.4183 16.88 12.3454C16.8418 12.0242 16.6587 11.7248 16.3646 11.5026C16.0705 11.2804 15.6853 11.1503 15.28 11.1363C15.1739 11.1363 15.0722 11.1028 14.9972 11.0432C14.9221 10.9835 14.88 10.9026 14.88 10.8182C14.88 10.6909 15.04 10.5636 15.28 10.5C15.8791 10.5262 16.4477 10.7189 16.8863 11.0446C17.325 11.3702 17.6059 11.8081 17.68 12.2818C17.68 12.3661 17.6379 12.4471 17.5628 12.5067C17.4878 12.5664 17.3861 12.5999 17.28 12.5999Z" fill="white"/>
<path d="M18.1264 2.79999H11.6337C9.52425 2.79999 7.50121 3.60848 6.00962 5.0476C4.51802 6.48673 3.68005 8.4386 3.68005 10.4738V14.7806C3.6795 16.3915 4.2044 17.9617 5.18036 19.2687C6.15631 20.5758 7.53384 21.5533 9.11773 22.0629V24.2554C9.1167 24.4467 9.17619 24.6337 9.28826 24.7915C9.40034 24.9493 9.55965 25.0703 9.74493 25.1384C9.9302 25.2065 10.1326 25.2184 10.3251 25.1726C10.5176 25.1267 10.6909 25.0253 10.8221 24.8818L13.2569 22.4544H18.1264C20.2359 22.4544 22.2589 21.6459 23.7505 20.2068C25.2421 18.7677 26.0801 16.8158 26.0801 14.7806V10.4738C26.0801 8.4386 25.2421 6.48673 23.7505 5.0476C22.2589 3.60848 20.2359 2.79999 18.1264 2.79999ZM24.1322 14.5457C24.1323 15.3338 23.9701 16.1141 23.6551 16.8413C23.34 17.5685 22.8784 18.228 22.297 18.7817C21.7156 19.3353 21.0261 19.772 20.2683 20.0665C19.5106 20.3609 18.6998 20.5072 17.883 20.4968H14.1496C14.1281 20.4968 14.1075 20.505 14.0922 20.5197C14.077 20.5344 14.0685 20.5543 14.0685 20.5751L12.9322 21.6714L12.283 22.3761H12.1206L10.3351 24.1771C10.3013 24.2065 10.2597 24.2262 10.2149 24.2339C10.1701 24.2416 10.1239 24.237 10.0817 24.2207C10.0394 24.2044 10.0028 24.177 9.97583 24.1416C9.9489 24.1062 9.93279 24.0643 9.92933 24.0205V20.1053C8.57842 19.7018 7.42499 18.8393 6.68295 17.6778C6.63255 17.6414 6.59165 17.5941 6.56348 17.5397C6.5353 17.4853 6.52063 17.4254 6.52063 17.3646L6.35831 17.1297C5.93337 16.302 5.71123 15.3911 5.70904 14.4674V10.7087C5.72221 9.78629 5.94379 8.87772 6.35831 8.04639C6.43764 7.87289 6.54747 7.71394 6.68295 7.57656C7.21965 6.71123 7.98112 5.99602 8.89209 5.50163C9.80306 5.00723 10.832 4.75077 11.8772 4.7576H17.883C18.6998 4.74723 19.5106 4.8935 20.2683 5.18793C21.0261 5.48235 21.7156 5.91907 22.297 6.47272C22.8784 7.02637 23.34 7.68592 23.6551 8.4131C23.9701 9.14028 24.1323 9.92059 24.1322 10.7087V14.5457Z" fill="white"/>
</svg>
